<svg xmlns="http://www.w3.org/2000/svg" version="1.1" id="Layer_1" x="0px" y="0px"
    viewBox="0 0 199.69 184.18" style="enable-background:new 0 0 199.69 184.18;"
    xml:space="preserve">
    <g>
	<g id="XMLID_8_">
		<path class="st0" fill="#F6BBC0"
			d="M71.19,57.79c-0.02,0-0.03-0.01-0.04-0.02c0.01-0.09,0.01-0.17,0.13-0.16c-3.36-2.74-8.5-6.53-13.69-5.46    c2.49,0.98,6.29,2.74,8.95,3.81c1.18,0.46,2.08,1.04,2.96,1.41C69.9,57.54,70.94,57.74,71.19,57.79z M52.61,156.91    c2.36-4.9,5.04-9.71,8.4-13.45C57,145,48.44,146.3,46.1,141.23c-1.92,0.98-4.88,1.4-6.96,0.81c-1.48-0.42-2.59-1.16-2.54-2.93    c0.09-2.46,1.24-5.46,1.91-7.55c-4.36,0.91-9.5,0.82-13.73,0.57c-0.07-1.19-0.73-1.63-1.53-1.87c-0.19-2.53,0.58-4.44,1.32-6.33    c0.77-1.96,1.56-4.35,2.9-6.65c0.3-0.51,0.87-0.81,1.17-1.3c1.61-2.73,1.7-6.07,3.22-8.88c-6.71,4.43-17.39,3.83-24.07,1.18    c-0.56-0.21-1.02-0.75-1.58-0.99c-2.07-0.87-4.41-1.38-6.03-2.52c-0.44-0.47,0.04-2.59,0.5-3.3c2.28-3.52,7.19-6.48,11.59-8.83    c3.84-2.05,9.82-3.84,13.9-5.43c-2.87-1.67-7.4-4.31-10.38-7.15c-1.1-1.04-2.92-2.72-2.71-4.4c0.15-1.16,1.71-1.68,2-3.01    c4.83-2.52,10.43-5.55,17.4-5.55c-3.29-1.4-7.2-3.64-9.97-6.18c-1.82-1.65-4.68-4.54-2.46-7.19c-0.03-0.56-0.71-0.32-0.7-0.95    c2.5-5.58,11.19-6.21,18.64-6.27c6.49-0.04,12.61,1.32,16.7,3.49c-1.42-1.71-3.04-4.54-4.27-7.57c-0.45-1.13-0.66-2.29-1.12-3.38    c-1.24-2.88-4.26-6.26-4.26-10.07c0.18-0.25,0.73-0.22,1.14-0.28c-0.68-4.55,2.47-11.15,7.09-9.63c-0.3-0.54-0.09-0.66,0.44-1.37    c7.06-0.46,13.38,1.4,17.18,5.18c1.71,1.71,2.46,4.02,4.2,5.83c1.33,3.14,3.69,5.51,5.41,8.62c0.73-4.42,6.25-5.04,9.71-7.29    c-0.73-3.48,0.65-5.95,3.37-7.58c0.89-0.53,1.97-1.96,2.86-1.96c0.62,0.02,2.09,1.36,2.89,2.16c2.73,2.82,4.96,6.6,5.53,12.12    c0.65-2.02,1.99-4,3.75-5.56c0.71-0.63,1.47-1.82,2.13-1.86c1.46-0.11,3.24,3.43,3.56,5.44c1.34-3.55,2.5-6.74,4.77-9.5    c2.18-2.66,4.9-4.81,7.52-7.18c1.28-1.82,2.56-3.69,3.92-5.45c1.28-1.67,2.89-3.59,4.56-4.93c2.08-1.65,4.7-3.04,6.97-4.48    c-0.16,0.68,1.4-0.24,2.57-0.59c1.4-0.4,2.98-0.77,4.18-0.62c0.32,0.29,0.25,1.07,0.16,1.44c0.36-0.33,1.25-0.22,1.87-0.36    c3.15,2.3,4.01,7.06,3.67,11.31c-0.28,3.41-1.67,6.38-2.54,8.51c-1,0.97-2.03,2.68-2.07,3.62c-2.55,2.98-5.09,6.18-6.75,10.17    c3.99-1.62,7.82-4.38,12.41-5.55c2.87-0.73,5.86-0.33,9.06-0.32c0.38,0.31,0.25-0.26,0.71-0.23c-0.06,0.23,0.67,0.38,1.09,0.46    c1.51,0.25,3.93,0.13,5.23,0.86c0.21,0.52,0.63,0.75,0.75,1.38c0.25,0.11,1.13,0.32,1.67,0.54c0.95,6.05-1.89,10.59-5.21,14.4    c-1.72,1.95-4.03,3.18-6.55,4.28c1.89,0.79,5.17,1.19,7.43,2.07c0.48,0.19,1.24,0.92,1.87,0.96c1.32,0.11,3.76-0.95,5.82-1.7    c4.7-1.7,10.95-3.04,16.1-2.9c0.3,0.01,0.77,0.36,0.77,0.36c1.28,0.01,6.94,0.21,4.62,3.13c0.93,0.28,0.12,0.74,0.78,1.52    c-5.03,7.95-13.76,14.08-27.55,15.53c0.56,0.89,1.41,1.93,2.14,3.28c3.57,0.82,6.91,2.57,8.78,6.16c1.23,2.34,2.98,5.56,0.55,7.28    c0.55,0.31,0.79,1.01,0.95,1.8c-1.69,2.35-5.28,4.56-8.93,5.3c-1.24,0.24-2.64,0.28-3.64,0.57c-0.73,0.21-1.23,0.54-1.29,1.17    c-4.21,3.66-13.24,3.09-17.74,1.34c-0.33,1.19,0.05,2.93-0.9,3.62c1.82,2.2,4.57,4.69,6.29,7.35c0.75,1.17,1.19,2.97,1.86,3.45    c0.53,0.37,3.47,0.91,4.66,0.92c4.18,0.07,7.79-1.26,9.59-3.31c-2.57-0.15-7.08,0.76-8.78-1.03c2.3,0.33,5.89,0.42,9.23-0.06    c0.47-0.37,0.4-1.17,0.85-1.56c-0.08-2.22-0.68-5.45-2.19-7.52c-0.76-1.04-1.99-1.47-2.2-2.54c0.88-0.19,2.18,0.86,2.83,1.73    c1.15,1.51,2.21,4.37,2.35,6.33c0.14,1.73-0.64,3-0.67,4.34c-0.19,0.76-1.15,0.93-1.43,1.63c1.19,0.64,1.91,1.9,3.22,2.41    c3.25,3.49,6.54,8.6,9.04,13.33c3.29,6.27,2.27,13.06-7.38,13.48c-4.54,0.2-9.64-1.75-13.59-3.79c-0.19-0.09-0.36-0.19-0.55-0.29    c-2.22-1.2-4.77-3.75-6.96-5.65c-1.26-1.08-1.82-2.78-4.04-1.88c-0.3,0.43-0.08,1.25-0.24,1.79c-4.36,3.76-11.23-2.1-14.4-4.05    c0.56,2.56,1.91,5.54,2.73,8.34c1.18,0.97,2.36,1.98,3.43,3.12c5.18,2.78,10.29,7.16,18.37,5.19c0-1-0.86-0.91-0.81-1.95    c0.8-0.82,1.99-0.62,2.29-1.74c0.2-0.78-0.46-1.39-0.13-2.34c1.71,1.03,0.82,4.24-0.95,4.52c0.21,0.6,0.44,1.55,0.26,2.17    c-7.81,2.69-13.89-2.03-19.06-4.83c2.2,4.78,6.5,10.43,6.58,17.43c0.02,1.99-0.2,4.52-1.38,5.88c-0.59,0.14-0.94-0.02-1.33-0.13    c-0.67,1.98-3,2.14-5.54,1.52c-3.31-0.82-7.67-4.29-9.98-6.33c-3.86-3.37-6.97-9.98-9.57-14.14c2.79,7.58,2.13,17.28-1.16,22.72    c-0.71,0-0.88-0.66-1.3-1.02c-0.69,0.08-0.79,0.6-1.22,0.88c0.58,5.76-0.59,12.49-3.67,16.42c-0.97,1.25-3.53,4.78-5.12,2.66    c-2.04,2.05-4.82-0.79-6.59-2.47c-1.37-1.28-2.14-2.45-3.41-4.01c-2.81-3.42-5.01-6.39-5.88-11.48    c-3.06,5.1-6.62,9.82-12.61,12.62c-7.53-3.63-8.62-16.25-9.33-25.91c-1.71,2.22-4.26,5.87-6.67,8.26    c-0.64,0.62-1.61,1.09-2.29,1.73c-1.89,1.77-3.75,4-5.94,5.68c-1.46,1.11-3.16,2.22-4.78,3.19 M51.48,169.95    c-0.38,0.49-1.27,1.79-1.06,2.18c0.76-0.37,1.75-0.55,2.25-0.85c5.99-3.64,12.04-8.88,16.45-13.79c1.3-1.46,2.43-3.04,3.42-4.65    c0.59-0.99,1.21-1.96,1.85-3.01c1.21-1.96,2.72-4.08,3.68-6.15c0.81-1.74,1.25-3.78,1.99-5.66c1.25-3.2,1.64-6.29,2.28-9.36    c0.5-0.3,0.43-0.28,0.66-0.67c-0.07-0.23-0.38-0.34-0.24-0.85c-0.19,0.02-0.23-0.15-0.45-0.08c-1.7,2.38-4.37,3.97-6.01,6.41    c-1.67-0.38-2.09-2.32-3.32-3.28c-2.71,4.82-6.46,8.82-10.89,12.27c-0.24,0.41,0.43,0.45,0.12,1.02    c-3.97,4.22-6.65,9.31-9.17,14.56c-1.75,3.66-3.58,7.74-3.36,12.72c3-3.19,6.21-7.36,9.46-10.79    C57.64,163.84,53.86,166.91,51.48,169.95z M83.27,176.97c0.38-2.28,0.92-4.43,2.06-6.11c-0.4,2.04-0.95,3.98-1.34,6.03    c9.27-5,13.77-14.16,14.3-25.88c0.06-1.35-0.05-2-0.38-3.18c-1.32,0.52-1.55,2.34-2.97,2.25c-1.33-0.08-1.52-2.26-2.31-3.54    c-1.87,5.48-3.59,11.09-8.63,14.06c-1.89-1.24-2.76-3.93-3.08-6.25c-1.11-7.82,0.91-16.41,1.96-22.22    c-0.26-0.67-0.32,0.16-0.28,0.18c-0.68,1.84-0.63,3.76-1.26,5.42c-0.73,1.86-1.63,4.56-2.74,6.77c-1.65,3.3-3.75,4.92-3.5,9.07    C75.67,162.69,77.12,172.87,83.27,176.97z M102.89,176.59c2.3,2.52,4.44,5.46,7.26,6.93c0.9-0.16,0.82-1.09,1.59-1.36    c0.52,0.5,1.05,1,1.89,1.1c4.42-3.97,7.11-11.03,6.43-17.77c-3.51,0.49-4.64-4.23-6.2-6.76c-1.18,2.41-2.94,4.35-5.18,5.89    c-0.91-0.59-1.37-1.71-2.07-2.55c-0.18,0.38-0.55,0.61-1.09,0.72c-3.15-3.09-4.2-7.17-6.55-10.98c-0.05,4.65-0.95,8.62-2.24,12.29    C97.65,169.53,100.04,173.5,102.89,176.59z M37.45,140.19c2.16,1.4,5.79,1.89,8.23,0.07c-0.49-4.27,0.59-7.91,1.26-11.9    c-2.5,1.01-4.68,2.26-7.58,2.94C38.61,134.18,37.46,136.73,37.45,140.19z M46.36,138.57c0.19,3.94,3.74,6.21,6.9,5.06    c3.46-1.25,6.44-4.55,9.22-6.5c-1.47,3.31-5.43,4.65-8.13,6.97c0.7-0.22,2.26-0.04,3.05-0.22c2.38-0.51,4.14-2,5.64-3.14    c3.02-2.3,5.14-5.1,7.45-7.91c0.94-1.15,2.25-3.08,2.34-3.79c0.13-0.96-0.83-3.75-0.56-4.78c-0.43,1.1-1.09,2.27-1.81,3.3    c-0.7,0.98-1.28,2.45-2.49,2.63c1.1-2.94,3.66-4.73,4.2-8.11c0.36-0.23,1.06-0.57,0.75-1.11c-2.51,1.64-4.16,2.32-7.93,3.7    c-1.03,1.33-1.44,3.85-3.18,4.18c0.37-1.43,2.3-2.79,2.4-4.53c0.04-0.78-0.5-1.57-0.56-2.29c-0.37-4.61,2.82-7,4.34-10.63    c-1.39,0.73-2.24,2.68-3.78,4.11c-1.29,1.22-3.21,2.7-4.88,3.36c-2.34,0.91-6.81,1.53-6.46-1.31    C49.37,122.31,46.01,130.91,46.36,138.57z M84.04,159.71c3.23-2.21,4.67-5.61,6.27-9.23c0.83-1.9,1.83-4.15,1.92-6.09    c0.15-3.19-0.73-6.72-0.48-10.51c-2.75,1.16-3.7,3.73-6.97,4.48c-0.64-1.09-0.73-2.71-1.3-3.66    C81.93,141.46,79.65,152.73,84.04,159.71z M23.93,129.73c0.83,0.09,1.55,0.35,1.5,1.59c7.48,0.95,16.08-0.62,21.95-4.17    c0.72-3.51,2.88-6.57,3.89-9.4c-3.53,2.56-12.13,4.58-17.21,3.32c-2.82-0.68-5.18-1.63-4.91-4.41    C26.59,120.36,24.68,124.6,23.93,129.73z M108.69,163.45c0.1,0,0.18-0.02,0.28-0.03c2.38-2.04,4.54-4.31,4.54-7.73    c-0.02-5.67-3.08-12.03-3.5-18.67c-1.48,0.68-1.2,3.5-2.8,3.71c-1.77,0.22-2.68-3.32-4.05-4.51c-0.76,4.22-2.64,7.54-4.78,10.68    c1.8,5.63,4.26,10.44,7.01,14.88c0.81-0.11,0.2-1.34,1.17-1.3C107.64,160.98,107.78,162.7,108.69,163.45z M114.35,155.45    c-0.29,2.96,3.37,9.57,4.92,9.4c1.19-0.12,1.22-2.35,2.62-2.65c0.72-0.03,0.72,0.85,1.3,1.02c2.7-6.88,3.37-15.28-0.46-22.82    c0.43,7.69-1.46,13.57-6.06,17.28C115.63,157.4,115.11,155.56,114.35,155.45z M30.57,118.84c1.64,0.89,3.5,1.15,5.74,1.39    c0.74,0.07,1.42,0.47,2.11,0.48c1.95,0.03,5.01-0.52,7.06-1.11c2.19-0.65,6.73-2.97,7.33-3.8c0.39-0.52,0.53-1.62,0.76-2.29    c1.1-2.98,2.38-5.08,3.51-7.74c-1.63,0.4-3.42,1.22-5.75,1.11c-1.13-0.06-2.45-0.84-3.64-1.04c-1.41-0.23-3.29,0.06-3.82-1.16    c-0.52-1.27,0.29-3.93,0.86-5.24c0.57-1.29,1.55-2.04,1.81-3.3c-2.62,0.07-4.35,1.52-5.97,2.9c-0.75,0.63-1.58,1.28-2.28,1.87    c-1.38,1.19-3.68,2.71-4.38,3.89c-0.25,0.43-0.42,0.85-0.27,1.5c-1.36,1.71-2.59,4.71-3.26,7.42    C30.02,115.33,30.04,117.48,30.57,118.84z M92.37,132.93c0.7,5.32-0.29,12.49,2.47,16.27c3.03-2.52,5.01-5.58,6.4-9.39    c0.56-1.59,1.53-3.7,1.44-5.15c-0.07-1.27-0.71-2.72-0.92-4.16c-0.3-2.01-0.67-3.81-1.08-5.46c-0.53,0.85-0.94,2.13-1.96,2.15    c-1.51,0.02-1.89-3.07-2.39-2.96C95.52,127.01,94.34,130.63,92.37,132.93z M9.62,107.78c0.8,0.29,1.44,0.95,2.19,1.2    c1.84,0.62,4.34,0.51,6.52,0.56c5.38,0.17,10.15-1.49,14.27-3.56c2.12-4.06,6.45-6.38,9.75-9.5c-7.21,0.87-13.24,0.25-15.82-4.76    c0.47-1.57,1.51-2.68,2.18-4.07c-8.11,2.36-16.1,5.03-21.96,9.31c-2.5,1.81-5.26,3.91-5.93,7.13    C3.45,105.54,6.47,106.64,9.62,107.78z M116.68,156.5c4.05-3.75,5.82-9.32,5.08-16.88c-2.15-2.38-4.45-4.57-5.78-7.97    c-1.82-1.13-2.86-3.19-4-4.23c-0.4,2.53-0.57,5.25-1.5,7.37C112.28,142.56,112.28,152.17,116.68,156.5z M136.98,156.93    c1.93,2.26,6.46,4.83,10.1,4.83c1.71,0.02,1.18-1.2,1.97-1.98c0.75-0.14,1,0.39,1.78,0.21c2.15-9.04-3.2-18.53-7.62-23.9    c0.41,1.31,0.71,3.07,0.82,4.45c0.23,3.06,0.59,8.86-0.52,11.95c-0.58,1.6-1.68,3.7-3.62,2.91    C139.42,156.32,138.27,156.68,136.98,156.93z M88.32,132.22c-0.32,1.63-1.69,3.13-1.83,4.47c4.92-3.26,9.09-8.2,9.02-14.54    c-0.03-2.6-2.19-5.05-2.27-8.24c-0.82,0.02-2.22-0.2-3.14-0.52c-0.56,2.36-4.53,2.02-6.37,3.38c-0.32,6.57-0.04,13.64,1.3,19.95    C86.6,135.66,87.05,133.06,88.32,132.22z M135.52,155.78c1.76,0.9,3.66-0.42,4.37-1.54c0.39,0.24,0.78,0.46,1.5,0.27    c0.3-0.82,1.42-2.02,1.56-2.96c0.47-3.41,0.94-9.24,0.1-12.92c-0.42-1.86-1.27-3.88-1.86-5.95c-0.89-3.05-1.84-7.09-3.28-9.16    c-0.63-0.91-1.74-1.39-2.46-2.21c-1.77-2.03-2.94-4.26-4.02-6.86c-0.94,0.94-3.98,0.64-5.09,0.45c1.28,3.07,2.4,6.44,3.46,10.74    c1.15,4.7,1.83,8.31,1.69,12.13c-0.07,1.84-0.62,5.29-2.12,5.67c-1.11,0.28-2.13-0.91-3.18-0.79    C128.69,148.01,131.59,153.07,135.52,155.78z M75.51,131.8c-0.07-0.62,0.22-0.96,0.11-1.63c0.93-1.54,0.8-3.91,1.86-5.36    c0.53,2.41-1.5,4.58-0.95,7.01c0.93-1.43,2.46-2.31,3.56-3.49c0.97-1.03,1.74-2.46,2.71-3.25c-0.12-2.59,0.09-4.94,0.1-7.93    c-2.84,0.49-3.15-2.22-4-4.23c-1.39,2.98-2.54,6.15-5.39,7.96c0.41,1.71-0.54,4.15-0.29,6.34    C73.43,129.08,74.14,130.73,75.51,131.8z M54.04,118.74c0.54-0.12,1.07,0.25,1.44-0.17c-1.44-2.58-0.02-5.63,0.11-7.93    C54.58,113,53.04,115.6,54.04,118.74z M64.69,123.38c2.07-1.1,0.35-3.59,0.94-5.84C64.73,118.56,64.05,121.06,64.69,123.38z     M102.68,132.01c0.78,3.29,2.84,6.79,4.58,7.69c2.57-3.75,3.75-9.26,3.87-14.53c-1-1.67-1.34-4.07-1.61-6.27    c-0.97-0.44-1.26-3.16-1.85-4.62c-1.19,1.55-3.76,0.55-4.83,0.12c0.1,2.31,0.2,4.88-0.48,7.25c-0.19,0.62-0.75,1.21-0.81,1.85    C101.3,125.98,102.11,129.62,102.68,132.01z M66.71,123c2.91-1.44,6.37-2.4,8.15-4.32c2.38-2.59,3.28-5.95,4.26-10.04    c-2.64-3.77,0.22-10.12,0.8-14.61c-2.01,1.51-2.96,5.03-5.39,6.64c-2.36,4.71-4.56,9.54-7.33,13.92    C66.43,116.69,66.03,121.05,66.71,123z M56.51,118.6c4.85-0.93,7.3-3.78,9.64-6.7c-4.87-2.42-2.45-9.6-0.83-13.39    c-2.59,1.44-4.43,3.93-6.46,6.18C57.7,108.81,54.28,113.51,56.51,118.6z M117.12,132.54c3.24,4.44,6.24,9.14,12.45,9.85    c2.86-6.27-0.71-17.47-2.7-23.16c0.31-0.89-0.27-2.08-0.86-2.39c-1.51,0.95-3.63,3.16-5.95,1.86c0.07,1.38-1.02,1.83-1.59,2.68    C119.6,125.85,119.16,130.14,117.12,132.54z M98.62,126.18c0.15-0.02,0.29-0.05,0.44-0.05c2.05-3.38,3.59-7.14,2.92-12.68    c-0.31-0.4-1.49-1.63-2.08-2.68c-1.2,0.89-3.43,0.88-4.52,0.22c0.03,1.25-0.69,1.91-1.31,2.65    C95.12,118.44,96.56,122.7,98.62,126.18z M44.74,104.42c3.59,1.41,9.04,2.31,13.36,0.06c1.79-3,4.53-5.26,7.34-7.45    c0.17-0.22,0.62-0.22,1-0.28c1.1-2.49,3.4-4.04,5.17-6.02c0.52-0.2,0.8,0.16,1.02-0.12c0.79-1.13,0.93-2.68,1.58-4.01    c0.58-1.15,2.15-2.31,1.33-3.67c-3.04,2.44-5.56,5.91-9.51,7.71c-1.5,0.69-3.64,1.61-5.66,1.83c-0.72,0.08-1.47-0.19-2.2-0.03    c-1.04,0.21-2.31,1.13-3.48,1.73c-1.99,0.98-3.96,1.5-6.7,1.65C46.42,98.3,44.61,100.59,44.74,104.42z M81.01,116.04    c1.81,1.63,3.67-1.96,6.47-1.18c0.7-0.59,1.17-1.35,1.98-1.85c-1.12-1.17-2.28-4.33-1.23-5.58c1.06,1,1.38,2.92,2.88,3.33    c1.19-0.2,2.51-0.84,3.43-0.83c-0.14-0.52-0.5-0.8-0.73-1.24c-3,0.41-4.18-1.47-4.88-3.97c2.09-0.72,3.96-1.61,4.75-3.34    c-1.39-0.88-4.67-0.61-5.45-2.74c-0.79,1.33-2.48,2.64-4.13,2.23c-2.25-0.54-2.76-4.76-3.05-7.28c-0.43,2.84-3.11,9.38-1.98,13.29    c1.14,3.99,6.39-0.12,6.94-2.12c-0.73,0.57-2.03,0.48-2.77,0.16c-0.64-0.86-0.6-3.44,0.18-3.54c0.58,0.72-0.13,2.14,0.47,2.88    c7.05-1.72-0.26,5.92-3.63,5.27C79.76,111.5,79.64,114.81,81.01,116.04z M117.12,131.22c1.52-2.26,1.42-6.05,0.77-9.62    c-3.34,1.47-5.02-1.76-6.46-3.8c-0.2,0.62-0.1,0.8-0.91,0.98C110.49,123.92,113.6,128.95,117.12,131.22z M64.05,106.43    c-0.08,1.93,1.82,6.37,3.51,3.69c-0.65-0.07-1.13-0.34-1.67-0.54c-1.78-2.15-1.09-5.82-0.53-8.3    C64.97,102.42,64.14,104.31,64.05,106.43z M30.57,94.78c1.31,0.59,3.51,1.07,5.25,1.15c2.82,0.12,8.59-0.03,10.42-1.35    c0.33,0,0.2,0.61,0.64,0.5c4.39-0.15,7.44-1.39,9.92-3.05c-0.97-0.1-1.32-1-2.2-1.22c-0.96-1.77-1.37-4.04-0.38-5.82    c1.47-2.65,5.9-3.39,8.04-5.19c-1.6-0.52-2.87-1.48-3.84-2.79c-4.03,0.88-8.35,0.75-11.49-0.42c0.07,0.35,0.11,0.69-0.21,0.75    c-5.62,0.29-10.95,2.62-13.13,5.64c1.36-0.61,3.23-2.15,4.63-1.86c-3.66,2.04-7.18,4.96-9.47,8.14c-0.43,0.58-1.4,2.08-1.28,2.78    C27.56,92.68,29.61,94.35,30.57,94.78z M66.72,109.2c2.2,0.46,2.61-1.01,3.52-2.47c1.29-2.04,2.58-4.57,3.35-6.54    c-2.67-1.12-2.57-6.06-1.54-8.19c-3.73,1.98-4.81,5.39-5.73,10.05c-0.15,0.78-0.56,1.48-0.63,2.13c-0.05,0.45,0.23,1.08,0.18,1.59    c-0.02,0.41-0.35,0.71-0.32,0.93C65.68,107.75,66.35,108.52,66.72,109.2z M16.29,79.26c3.48,3.2,8.18,6.73,13.18,7.42    c0.01,0.09,0.05,0.17,0.16,0.11c0.45-0.56,1.05-0.99,1.42-1.62c-0.39-0.92,0.49-1.53,0.76-2.3c-1.56-0.13-2.95-0.46-3.85-1.45    c1.52-0.31,3.21,1.16,4.5,0.79c1.23-0.34,2.67-2.23,4.06-2.97c3.27-1.72,6.68-2.59,10.07-2.93c-3.38-1.79-6.35-4.15-11.43-3.81    c-1.99-1.67,1.08-2.9,1.88-4.03c-4.1-1.42-9.69-0.16-13.2,1.24c-3.3,1.31-7.65,2.06-8.69,4.82c0.51,0.85,2.2,0.21,2.76,0.99    c-1.18,1.14-3.3-0.78-4-0.27C13.45,77.04,15.18,78.25,16.29,79.26z M89.18,110.54c-0.22,2.99,5.97,3.32,5.17,0.28    C92.39,111.56,90.29,111.87,89.18,110.54z M107.85,113.37c1.19,0.81,0.83,3.6,1.97,4.46c1.34-0.57,1.75-1.87,2.94-2.54    c-0.02-1.12,0.61-2.35,1.62-2.54c2.06-0.4,3.04,3.51,4.46,4.32c0.47,0.11,0.62-0.02,1.19,0.16c1.42,2.57,4.27-0.25,5.59-1.24    c-0.3-1.13-0.81-1.98-1.74-2.29c0.11,1.01-0.08,1.77-0.62,2.26c-3.93,0.64-6.77-1.51-7.01-6.07c-0.81-0.7-0.95-2.25-1.94-2.71    c-0.4,2.49-2.01,4.81-4.65,2.88c-0.36-1.21-1.77-1.61-2.13-3.27c-1.79,0.04-2.89-0.78-3.76-1.92c0.36-0.98,0-3.24-0.35-4.36    c-0.59,1.95-2.17,3.11-2.79,5.03c0.88,0.66,0.57,1.63,0.74,2.55c2.55-0.62,2.66,1.84,4.24,2.44c-0.12-0.75-0.87-1.83-0.28-2.46    C107.33,108.49,108.53,111.5,107.85,113.37z M112.6,116.34c-0.41,4.47,5.81,6.73,6.58,2.31c-0.41-0.7-1.1-1.07-1.67-1.7    c-0.96-1.08-1.57-2.67-2.89-3.34c-0.41,0.23-0.68,0.6-1.07,0.86c0.06,0.52,0.12,1.06,0.19,1.59    C113.46,116.48,112.76,116.06,112.6,116.34z M100.55,109.97c-0.12,1.38,3.7,5.13,5.64,4.33c1.01-0.43,1.5-3.09,0.27-4    c0.19,0.8-0.18,1.17-0.71,1.41c-1.68-0.03-1.74-2.97-3.71-2.94C101.24,108.78,100.62,109.25,100.55,109.97z M94.66,108.45    c1.11,3.4,6.38,2.64,5.7-1.54c-0.9,0.35-1.2,1.16-1.87,1.68C96.75,109.53,95.82,107.79,94.66,108.45z M73.57,91.1    c-1.45,1.11-2.18,8.79,0.82,8.4c0.74-0.09,1.09-0.93,1.43-1.63C74.16,95.63,74.33,92.85,73.57,91.1z M89.89,105.32    c1.54,4.89,7.37,1.95,6.58-2.82C94.61,103.52,91.95,104.17,89.89,105.32z M144.52,127.14c2.51,1.3,5.9,3.48,8.7,1.63    c0.17-0.89-0.09-1.41,0.19-2.08c0.77-0.3,1.88-0.34,2.88-0.47c-0.35-6.23-3.33-9.99-6-13.68c-1.47-2.04-3.15-3.99-4.75-5.47    c-1.24-1.16-3-1.74-3.61-3.39c2,0.14,2.78,2.61,4.76,3.1c0.76,0.19,1.57-0.22,2.34-0.12c2.1,0.25,4.29,1.34,5.85,2.4    c1.64,1.13,3.09,2.58,4.82,3.7c-0.33-1.63-0.97-3.39-1.86-4.77c-1.71-2.67-4.19-5.08-6.4-7.04c-5.45,3.25-9.89-1.79-12.63-5.12    c-1.12,0.26-3.23-0.57-4.18-0.55c1.81,2.48,4.49,4.09,5.96,7.09c0.29,0.57,0.42,1.2,0.58,1.84c0.19,0.62,0.41,1.26,0.88,1.81    c-0.27,1.63-0.11,3.04-1.02,3.93c-2.43,2.39-7.37-0.77-9.17-1.87c-0.35,1.68,0.46,3.86-0.37,5.62c1.81,2.35,2.66,5.46,5.16,7.76    c0.55,0.51,1.33,0.76,1.91,1.25C140.56,124.37,142.1,125.91,144.52,127.14z M95.99,107.41c0.45,0.6,1.05,0.9,1.97,0.5    c0.55-0.81,2.03-1.96,2.26-3.34c0.18-1.18,0.2-2.82-0.85-3.42c-0.7,0.1-0.94,1.7-1.97,1.98    C97.46,104.97,96.41,105.93,95.99,107.41z M55.65,84.67c-2.29,2.4-0.91,6.41,2.28,6.92c0.64,0.05,0.82-0.73,1.27-0.44    c0.63-0.05-0.09,0.7,0.5,0.52c8.04-1.86,13.21-6.01,15.9-12.11c-0.42-0.35-0.68-0.92-1.16-1.19c-1.48,1.83-5.24,3.86-8.85,4.55    c-0.93,0.18-2.55,0.3-3.17-0.66c5.16,0.18,8.69-2.48,11.93-4.6c-0.01-0.12-0.04-0.23-0.04-0.31c-0.03-0.61,0.31-0.5-0.11-1.01    c2.13-0.98,3.57-3.64,6.04-4.81c1.17,1.45,2.47,2.76,3.19,4.76c-0.29,1.03-1.41,1.03-2.17,1.43c0.05,0.44,0.1,0.86,0.14,1.3    c1.35,1.29,3.54,2.76,3.52,4.7c-0.01,0.4-0.1,0.81-0.32,1.24c-2.63,1.18-5.88,0.52-7.69-0.43c-3.5,1.81-2.64,9.13-0.45,12.53    c1.31-1.71,2.3-3.68,3.94-5.15c0.46-0.18,0.26,0.44,0.63,0.37c-0.17-3.65,1.63-1.57,4-1.05c1.91,0.42,3.51-0.63,4.97-0.14    c-0.77-2.9-3.74-3.04-4.5-5.94c0.4-0.4,0.01-0.99-0.1-1.44c-0.06-0.25-0.02-0.46,0.27-0.6c0.05-0.01,0.1-0.02,0.16-0.05    c1.1,2.24,3.01,5.3,5.99,4.72c0.61-0.12,1.19-0.68,1.77-1.09c0.29-0.72-0.01-1.77-0.1-2.18c0.95-0.47,1.14,0.57,1.57-0.33    c1.25,0.92,2.02,3.31,3.49,3.42c0.38-3.31-3.73-7.14-2.64-11.29c0.67,2.86,1.26,5.54,2.47,7.35c0.01-0.35,0.02-0.69,0.5-0.65    c0.69,0.93,0.26,2.32,0.59,3.74c1.64,0.37,2.03,2.32,3.94,2.33c0.01-0.91-0.12-2.08-0.07-3.22c0.02-1.05,0.66-2.75-0.65-3    c-0.12,1.06-0.29,2.3-1.35,2.36c-2.49,0.14-3.96-8.69-3.85-10.42c-1.93,0.24-3.17,1.63-5.16,1.05c0.77,1.81,2.34,5.8-0.11,6.6    c-1.71-0.07-3.22-1.23-4.29-1.55c-0.09,1.14,1.2,2.3,0.33,2.89c-0.69-0.41-1.91-0.67-2.23-1.46c-0.08-0.17-0.1-0.38-0.07-0.63    c0.77-0.19,0.72,0.65,1.4,0.58c-0.41-0.84-0.31-1.85,0-2.49c-1-1.08-2.26-3.87-1.52-5.54c1.01,3.69,2.71,7.4,6.4,7.18    c1.39-1.61-0.36-4.3-0.98-5.9c-1.71-0.2-3.73-0.58-5.4-1.35c-1.73-0.79-3.08-2.03-3.29-3.95c-0.19-1.77,0.58-2.69,1.31-3.97    c-1.66-1.57-3.87-2.44-7.25-1.8c0.37,0.8,1.99,1.46,2.5,2.65c0.53,0.44,1.53,0.28,1.63,1.28c-1.66-0.16-2.85-0.92-4.66-0.94    c-2.33-0.01-5.65,1.38-6.45-1.14c2.25,1.18,5.48,0.26,7.96,0.24c-3.03-2.52-8.29-4.05-12.33-1.35c0.13,0.55,0.06,0.92-0.16,1.19    c-3.48,1.16-6.12,2.97-8.85,4.7c1.29,1.52,1.4,4.54,3.27,5.34c-0.1,0.67,0.72,1.32,1.38,1.75c2.34,1.55,3.24,0.96,6.18,0.17    c1.53-0.41,3.24-0.68,4.43-0.96c0.78-0.18,2.11-1.16,2.65-0.01c-2.58,0.93-6.22,1.42-9.52,2.58    C61.99,80.87,57.23,83.02,55.65,84.67z M117.38,109.47c-0.51,3.6,1.92,6.15,5.37,5.83C123.91,111.48,118.32,112.25,117.38,109.47z     M110.33,109.55c1.65,1.28,3.17-0.38,2.83-2.23c-0.96-0.63-1.36-1.96-2.74-2.04C110.39,106.82,109.98,108.04,110.33,109.55z     M94.72,101.4c0.08,0.71-0.92,1.12-0.57,1.38c0.93-0.27,1.36-0.94,2.19-1.29c0.62-0.11,0.56,0.62,1.09,0.61    c0.46-0.7,0.95-1.36,1.38-2.07c-1.1-0.1-1.4-1.22-2.37-1.48c-4.14,2.01-5.66-1.11-9.16-1.73c-0.39-0.06-0.91,0.05-1.31,0.02    c-1.57-0.17-2.8-2.27-3.81-2.5c-0.13,2,0.66,4.48,1.97,5.64c2.1,0.38,2.85-1.28,3.69-2.33c1,0.61,1.9,1.36,2.75,2.17    C92,100.21,94.53,99.91,94.72,101.4z M108.42,106.99c0.33,0.26,0.32,0.93,0.85,0.92c0.34-1.21-0.2-3.12,0.87-3.78    c1.57,0.31,2.52,1.37,3.38,2.56c0.23-0.21,0.31-0.53,0.81-0.54c1.15,0.43,1.54,1.81,2.23,2.82c0.72,0.17,0.71-0.09,1.29-0.29    c0.74,1.26,3.5,3.32,4.93,3.4c0.31,0.03,0.55-0.05,0.71-0.25c1.85,2.32,8.51,4.51,7.79-1.2c-0.41,0.01-0.71-0.08-0.96-0.63    c-0.98-2.84-3.58-3.66-5.84-4.89c-0.57,2.29,0.59,5.91-1.71,6.8c-0.23-0.87-0.07-1.87-0.3-2.61c-1.02-3.19-3.21-3.56-4.77-5.6    c-0.65,0.94-1.72,2.06-3.46,1.72c-0.37-1.13-1.43-1.4-1.39-3.07c-0.84,0.58-2.49,0.35-3.41-0.33    C109.88,104.28,108.98,105.51,108.42,106.99z M156.95,126.73c6.26,6.35,16.68,14.05,28.02,10.09c3.9-3.04,2.73-6.72,1.92-9.9    c-3.69-6.4-7.55-12.59-12.96-16.84c-2.79,2.76-9.47,3.02-13.29,1.84c-0.2,0.63,0.07,1.64-0.5,1.97c-4.32-1.91-6.43-6.6-12.6-6.16    c1.01,1.5,2.63,3.15,3.97,5.11C154.11,116.65,157.69,121.98,156.95,126.73z M104.67,104.94c1.56,1.69,4.04,1.08,3.96-1.21    c-0.03-0.74-0.38-1.34-0.76-1.51c-0.45,0.68-0.43,1.44-1.15,1.6c-1.5,0.33-1.53-1.69-2.05-2.55    C104.67,102.35,104.79,103.68,104.67,104.94z M99.98,100.04c0.82,0.61,1.04,2.46,1.35,2.78c0.52-1,1.15-1.9,1.56-2.96    c-0.37-0.25-0.53-0.76-1.11-0.75C101.3,99.51,100.62,99.76,99.98,100.04z M89.17,96.62c1.37,0.55,2.56,1.4,3.25,1.52    c2.63,0.47,4.64-0.89,4.86-2.46c1.09,0.41,0.03,1.52,0.12,2.33c1.83-0.31,1.96-1.95,4.49-1.71c0.26-1.41,0.73-2.67,0.99-4.08    c-0.95,0.6-1.47,1.29-2.3,1.59c-0.15,0.05-0.49-0.11-0.6-0.07c-0.26,0.09-1.29,1.29-1.87,0.36c1.49-1.37,4.5-1.53,4.68-3.92    c-1.09-0.89-2.07-1.94-3.37-2.55c-0.07,0.78-0.26,1.34-1.03,1.29c-0.68-0.05-0.47-0.51-0.99-1.06c-0.85-0.89-2.12-2.09-2.52-2.64    c0.09,1.07-0.48,1.63-0.75,2.42c1.39,0.79,4.97,4.62,2.76,6c-1.29,0.79-3.49-0.42-4.6-0.35c0.58,0.49,1.67,0.35,1.92,1.24    c-1.95,0.44-3.34-1.2-4.02-2.9c-3.49,0.87-6.33,0.03-8.27-0.51c0.05,0.79,0.55,2.19,1.38,3.07    C84.69,95.68,87.04,95.74,89.17,96.62z M106.02,100.23c-0.56,0.5-0.22,2.38,0.6,2.58c-0.04-1.06,1.25-1.95,2.35-1.31    c-0.93-1.07-1.89-4.67,0.51-4.32c-0.07-0.8-0.46-1.18-0.65-1.82c-0.69,0.07-0.98-0.12-1.5-0.27    C106.16,96.31,104.55,98.83,106.02,100.23z M98.21,98.64c0.55,1.56,4.24,0.23,2.76-1.48C99.46,97.18,99.73,98.62,98.21,98.64z     M102.74,95.92c-0.62,1.41-0.13,4.33,1.92,3.88C103.99,98.53,103.22,97.4,102.74,95.92z M121.18,105.65    c1.09,1.02,1.6,2.75,2.27,4.3c0.65-1.78-0.65-5.38,0.93-5.83c0.46-0.13,1.47,0.66,2.19,1.06c1.98,1.12,3.86,2.37,4.62,4.45    c0.09-1.06-0.48-1.81-0.12-2.34c-2.12-1.45-3.12-4.67-4.35-7.12c-0.29-0.6-1.25-1.13-0.96-1.87c0.04-0.08,0.07-0.17,0.13-0.24    c1.24,0.69,1.42,2.12,2.02,3.43c1.98,4.37,7.17,9.55,12.8,7.9c1.45-2.53-0.28-5.36-2.46-6.03c-2.92,2.03-5.35-1.54-7.88-2.15    c2.69-1.28,4.89,3.64,7.62,1.3c0.84-0.09,1.86,1.26,2.16,0.77c-1.19-3.25-4.6-5.15-6.51-8.04c-0.08-0.28,0.16-0.31,0.24-0.47    c-0.99-0.43-1.78-1.07-2.68-1.59c-0.02,1.42-0.88,2.19-1.54,3.12c-1.53,0.77-3.34,0.01-4.13-0.11c0.34,0.73,0.29,1.42-0.01,1.99    c-0.97,1.97-4.67,2.76-5.45,0.26c-0.42,0.15-0.67,0.44-0.94,0.7C121.58,99.93,123.61,103.5,121.18,105.65z M108.85,97.98    c-0.59,2.23,1.17,4.1,3.26,4.03C111.27,100.34,110.79,98.25,108.85,97.98z M41.93,72.61c2.22,0.96,3.81,2.62,5.97,3.42    c2.84,1.06,7.36,0.85,10.01,0.31c-0.8-0.82-0.7-2.15-1.25-3.22c-0.42-0.8-1.22-0.88-1.24-1.77c-0.01-1.73,2.73-1.75,3.59-3.2    c-4.52-2.59-15.39-1.02-20.16,0.72c-1.15,0.73-2.81,1.3-3.36,2.59C37.82,71.97,39.92,71.76,41.93,72.61z M118.95,104.16    c1.09,1.26,2.68,0.43,2.68-0.9c0.03-2.24-2.42-2.74-3.79-3.67c-0.78,1.65,0.79,2.88,1.19,3.97    C119.08,103.69,118.76,103.94,118.95,104.16z M104.76,98.18c0.57-1.57,1.13-3.13,2.61-3.97c-0.51-0.87-1.19-1.48-2.12-1.82    c-0.15,0.25-0.05,0.67-0.5,0.65c-0.16-0.24-0.45-0.33-0.39-0.83c-0.8,0.34-0.26,1.04-0.91,0.99    C103.98,94.79,103.4,97.07,104.76,98.18z M115.17,104.44c1.19-0.2,1.97-0.72,2.31-1.58c-0.73-1.19-1.33-2.53-2.95-2.6    C114.38,101.45,114.27,103.29,115.17,104.44z M113.75,102.41c-0.28-1.58-0.12-2.82,1.1-3.21c0.69,0.39,1.25,0.97,2.05,1.23    c0.55-1.28-0.5-1.99-1.45-2.33c-2.65,2.17-4.11-1.29-5.35-1.88C110.82,98.54,112.2,100.72,113.75,102.41z M89.69,88.48    c1.41,2.54,3.01,4.84,6.69,4.51c0.53-2.39-1.86-3.66-3.07-4.94C92.3,88.84,90.48,88.35,89.69,88.48z M76.83,83.82    c1.99,0.53,4.93,1.72,7.23,0.33c-0.18-1.78-1.74-3.2-2.85-4.36c-1.91,0.66-3.41-0.29-4.63-0.64    C75.84,80.34,75.76,82.62,76.83,83.82z M23.34,60.4c4.19,3.8,10.15,6.29,15.38,7.44c5.93-2.06,14.7-2.64,19.69-1.1    c-3.01-2.53-6.82-5.5-6.78-10.36c1.57-1.48,1.8-4.01,4.28-4.77c-2.39-1.27-5.18-2.34-8-3.17c-3.81-1.13-9.26-1.19-14.63-0.94    c-5.64,0.28-11.06,1.9-12.91,5.02c0.32,0.63,1.65,0.02,1.85,0.81C17.87,54.9,21.31,58.57,23.34,60.4z M112.39,94.35    c-1.32,1.37-0.33,4.71,2.42,3.23C113.72,96.56,114.26,94.5,112.39,94.35z M117.76,97.69c0.29,0.18,0.31,0.72,0.8,0.64    c0.19-0.04,0.39-0.05,0.57-0.07c0.57-1.86-1.98-3.64-4.52-3.58c0.21,2,1.47,2.67,2.61,3.51C117.4,98.03,117.47,97.76,117.76,97.69    z M109.55,95.27c0.73-0.21,1.12,0.02,1.64,0.09c-0.04-1.03,0.66-1.47,1.54-1.79c0.48,0.13,0.86,0.36,1.24,0.6    c1.49-0.71,4.02,0.1,4.99,1.18c0.12-1.53,2.33-1.4,3.41-2.16c-0.1-0.71-0.09-1.54-0.38-2.02c-1,0.37-2.69,0.64-2.99-0.38    c0.37-1.67,2.23-2.78,2.63-3.98c-0.8-0.62-1.89-1.6-0.92-2.81c1.51-0.1,2.19-1.92,3.19-2.88c0.19,2.08-1.93,2.89-2.79,3.71    c0.62,1.91,4.32,2.35,5.16,0.27c-0.06-0.52-0.88-0.11-0.82-0.78c0.56-0.39,1.32-0.61,1.93-0.96c1.11-3.72-1.72-7.62-4.01-9.21    c-0.11-0.45,0.65-0.19,0.67-0.52c-0.33-0.18-0.42-0.68-0.94-0.62c0.21,2.53-0.66,7.01-3.42,8.46c0.18,1.51-0.5,2.33-0.94,3.33    c0.38-0.09,0.41,0.26,0.51,0.54c0.26,4.28-4.7,5.07-8.05,4.01c-1.26,1.96-4.57,1.12-6.45,1.19c0.26,0.48-0.09,0.71,0.26,0.99    c0-0.21,0.33-0.18,0.56-0.21C106.88,92.67,108.59,93.52,109.55,95.27z M119.82,95.25c-0.13,2,1.28,3.95,2.67,4.09    c3.45,0.36,2.61-5.36,0.69-6.68C123.34,94.54,120.74,94.21,119.82,95.25z M76.25,78.89c1.56-0.87,2.96,1.17,4.26,0.09    c-0.13-0.89-0.29-1.81,0.34-2.08c0.77-0.07,1.33-0.27,1.69-0.64c-0.96-0.87-1.41-3.43-2.6-3.51c-0.64-0.04-1.4,1.21-1.87,1.68    c-0.89,0.92-1.8,1.45-2.55,2.05C75.14,77.43,75.5,78.51,76.25,78.89z M107.21,88.93c-0.49-0.15-0.78,0.37-0.94,0.85    c1.46,0.36,3.78-0.04,4.26-1.23c-0.65-0.18-2.5-0.04-2.77-1.15c-0.24-0.96,0.94-1.47,1.17-2.48c-1.1-1.47-0.51-3.7-0.33-5.39    c-0.53,0.24-1.15,0.95-1.82,0.65c-0.6,1.29-0.67,2.98-2.56,3.24c-0.27,1.92-0.06,4.37,0.14,6.29c1.73-0.46,2.06-2.04,3.33-2.88    c-0.24,0.52-0.33,1.14-0.54,1.67c0.26,0.04,0.34-0.25,0.43-0.03C107.62,89.07,106.72,88.42,107.21,88.93z M125.42,94.16    c0.26,1.28,1.66,2,2.82,1.57C127.13,95.43,126.99,93.89,125.42,94.16z M99.75,81.59c0.4,1.08,0.7,2.31,1.77,2.58    c0.67-1.44,1.09-3.79,0.33-5.91C101.48,79.69,100.67,80.4,99.75,81.59z M114.82,84.97c-0.99,1.01-2.52,1.82-2.8,3.69    c2.52,0.82,7.21-0.48,6.34-3.5c-0.97-0.04-1.41,0.75-2.7,0.75C115.32,85.66,115.03,85.37,114.82,84.97z M124.77,93.64    c0.46-0.06,0.91-0.46,1.3-0.15c-0.62-4.55,3.17-0.9,4.11-0.04c0.73-3.3-1.11-6.77-3.31-8.27c-0.78,2.33-1.85,4.41-3.87,5.74    C123.63,91.77,124.29,92.59,124.77,93.64z M109.84,85.11c-0.36,0.71-1.1,1.14-0.89,2.3c3.15,0.53,3.84-2.71,5.78-3.17    c-0.03-1.56-0.05-3.8-0.14-4.97C113.57,81.67,112.71,84.18,109.84,85.11z M126.82,92.23c0.17,1.78,1.99,3.87,3.06,2.44    C129.1,93.55,128.24,92.54,126.82,92.23z M55.64,63.25c1.64,1.8,3.45,3.45,5.6,3.9c0.72-0.63,1.76-0.58,2.5-1.17    c0.41-0.33,0.51-0.95,0.88-1.27c1.5-1.36,3.35-1.57,6.36-2.07c-1.1-0.84-1.7-2.78-0.6-3.89c-4.66-2.31-9.52-4.36-14.52-6.22    c-1.64,1.27-3.68,3.35-3.47,5.53C52.63,60.26,54.26,61.71,55.64,63.25z M122.28,87.33c-0.62,1.22-1.92,1.9-2.25,3.35    c2.8,0.19,4.43-2.25,5.14-3.68C124.36,87.57,123.44,87.17,122.28,87.33z M143.67,99.67c1.77,1,4.54,2.37,6.52,0.71    C149.28,97.6,145.57,99.71,143.67,99.67z M103.5,82.32c1.63,0.92,1.86-1.67,2.63-2.65c-1.28-3.27,0.65-7.11-0.27-9.8    c-2.3,0.97-2.11,5.08-3.4,7.3C103.29,78.78,102.62,80.04,103.5,82.32z M140.19,96.25c1.4,1.05,2.6,2.75,4.84,2.51    c1.09-0.11,2.08-0.92,3.27-0.81c1.06,0.09,1.72,0.69,2.52,1.46c0.1-0.46,0.42,0.12,0.59,0.08c0.94-0.81,0.85-2.48,0.45-3.72    c-0.98-3.09-4.13-6.84-6.61-7.75C147.36,92.44,144.38,95.86,140.19,96.25z M99.14,80.19c0.18-0.01,0.22,0.17,0.46,0.1    c1.55-2.53,3.12-5.06,3.56-8.49c-1.4,0.43-1.67,1.75-3.12,2.13c-0.7-0.23-0.69-1.34-1.24-1.77    C97.33,74.04,98.71,77.69,99.14,80.19z M131.37,92.29c2.9,2.53,10.07,4.39,13.59,0.78c1.19-5.21-3.6-8.59-6.79-9.19    c1.16,1.67,5.47,6.27,3.36,10.02c0.39-5.38-2.9-7.49-4.89-10.43c-3.23,0.18-5.52-1.9-7.98-1.71c0.24,0.89-0.69,1.99-1.31,2.65    C129.65,86.18,130.79,88.45,131.37,92.29z M109.51,79.72c-0.24,1.59-0.98,3.65,0.38,4.51c2.17-1.36,3.49-3.36,3.86-5.89    c0.19-1.26-0.56-3.09,0.7-4.03c0.6,1.08,0.19,2.74,0.47,4.04c0.78-0.91,0.91-2.34,0.86-3.91c-0.17-0.38-0.22,0.41-0.71,0.23    c-0.87-1.46-1.66-3-2.82-4.08c0.21,2.47-1.98,4.49-2.49,6.31C109.56,77.64,109.64,78.8,109.51,79.72z M84.45,72.36    c1.7,1.18,5.71,2.5,8.39,2.84c1.01,0.12,1.72-0.08,1.98-0.67c-0.45-1.24-1.19-2.13-1.71-3.32c-1.43-0.41-2.15-1.7-2.46-3.52    c-1.53-1.24-4.65-1.42-6.5-0.42C83,68.59,83.51,70.89,84.45,72.36z M106.53,76.84c-0.15,0.86-0.02,2.5,0.88,2.53    c0.47-0.45,0.82-1.01,0.98-1.72C107.39,77.86,107.38,76.81,106.53,76.84z M115.69,82.38c-0.31,0.86-0.17,1.66,0.01,2.65    c2.06-0.12,3.34-1.57,3-3.14C117.99,82.45,116.63,82.63,115.69,82.38z M95.18,72.58c0.43,0.61,0.3,1.45,0.94,1.79    c2.95-1.21,2.07-6.59,2.8-10c0.24-0.48,0.99-1.1,0.39-1.81c-1.77,1.55-1.85,4.41-4.37,5.35c-0.1,1.36-1.09,2.33-0.75,3.61    C94.35,72.15,94.83,72.09,95.18,72.58z M70.67,59.88c0.31,1.63,1.52,3.11,2.9,3.48c0.35,0.09,0.7-0.19,1.15-0.15    c0.41,0.05,0.85,0.42,1.22,0.46c1.57,0.13,3.21-0.48,4.68-0.26c1.88,0.31,2.73,1.58,4.26,2.58c2.21-0.7,3.71,0.06,5.51,0.68    c-0.46-3.19-2.8-5.25-4.14-7.88c-1.67-1.04-3.35-2.75-6.1-1.92c0.2,1.35,1.91,1.69,1.56,3.18c-1.61-0.69-1.93-2.82-4.01-2.9    C75.17,57.05,72.44,58.77,70.67,59.88z M117.16,76.04c-0.1,2.37-2.83,4.26-0.97,5.68c7.78-0.33,7.06-11.69,2.12-14.62    c0.16,2.21-1.59,4.23-1.65,6.07C116.65,73.98,117.2,75.06,117.16,76.04z M108.12,76.65c0.02,0.09,0.04,0.18,0.17,0.13    c1.1-0.7,2.58-3.41,2.97-4.73c0.26-0.93,0.02-1.97,0.25-2.98c0.08-0.4,0.34-0.36,0.34-0.77c0-1.74-0.85-3.72-0.33-5.4    c-0.71-1-1.31-2.11-2.62-2.33c-1.68,0.9-1.65,3.57-1.8,6.07C106.89,70.17,106.25,74.36,108.12,76.65z M92.83,70.06    c-0.19-0.5,0.55-0.26,0.85-0.39c1.2-2.5-1.08-7.02-0.42-9.93C90.91,61,90.35,68.66,92.83,70.06z M152.57,95.55    c6.45,1.69,14.62,2.32,18.95-2.35c1.44-1.53,2.14-3.44,3.36-5.23c-3.14-3.45-6.8-6.23-11.08-8.24c-2.74,0.85-5.57,0.39-7.77,0.02    c-1.73,1.61-3.85,3.24-6.48,3.69c-4.75,0.81-7.93-2.62-11.54-3.35c-0.56-0.64,0.21-0.93-0.82-0.8c0.31,0.71,1.56,1.69,1.42,3.5    c2.45,0.84,4.41,2.3,5.94,4.3c2.46,0.2,4.41,2.24,5.92,4.3C151.37,92.6,151.99,94.1,152.57,95.55z M129.46,80.93    c0.49,0.12,0.05-0.48,0.55-0.36c2.05,1.07,4.93,2.8,7.83,1.73c-0.71-3.81-5.14-2.92-7.45-4.7c0.72,1.53,2.28,1.98,3.43,2.97    c0.73,0.14,1.63,0.04,1.61,1.13c-3.16-0.37-4.77-2.72-6.83-4.49c-0.13-0.46,0.21-0.48-0.09-0.73c-0.91-0.01-1.68-1.06-2.3-0.89    C127.82,77.03,127.55,79.66,129.46,80.93z M90.13,63.34c0.15-0.02,0.31-0.04,0.44-0.05c0.09-1.07,0.5-1.89,0.7-2.88    c-0.68-1.75-1.69-2.95-2.54-4.11c-1.44-1.97-2.59-4.04-3.93-5.99c-0.7-1.06-1.3-2.06-1.82-3.16c-0.54-1.12-0.81-2.48-1.47-3.65    c-0.39-0.71-1.23-1.33-1.84-1.98c-0.62-0.67-1.12-1.58-1.97-1.82c-0.91,1.95-1.57,5.02-0.77,7.28c0.59,1.69,2.73,2.66,4.15,4.07    c1.65,1.63,3.14,3.01,4.23,4.79c0.24,0.21,0.34,1.04,0.16,1.3C87.66,58.4,88.65,61.18,90.13,63.34z M53.03,45.79    c1.38,2.63,3.45,6.07,7.21,5.18c-1.54-3.42-0.17-8.36,0.05-12.04c-0.64,0.13-0.33-0.66-0.55-1.11c-1.14-2.28-4.05-4.11-5.98-5.91    c-0.81-0.76-2.25-2.14-3.05-2.27c-0.45-0.08-0.9,0.28-1.29,0.29c-1.16,0.03-2.29-0.67-3.56-0.32c0.37,3.4,2.6,5.59,4.11,8.77    c0.59,1.29,0.8,2.69,1.34,3.96C51.81,43.5,52.42,44.62,53.03,45.79z M61.44,51.28c4.61,1.14,8.31,3.45,11.47,6.44    c1.35-0.62,3.07-1.63,4.95-1.6c0.4,0,0.82,0.33,1.22,0.3c1.05-0.11,1.85-0.79,2.84-0.77c1.12,0.01,2.01,0.76,2.9,0.99    c-0.53-1.61-1.6-2.08-2.56-3.09c-0.43-0.45-0.71-1.09-1.22-1.62c-2.37-2.45-4.98-2.87-5.45-6.56c-0.2-1.4,0.71-5.37,1.83-6.96    c-0.81-0.59-2.02-0.67-3.43-0.48c-2.21-0.66-3.93-4.19-6.5-4.09c-1.35,0.07-2.07,1.1-3.28,2c-0.94,0.7-2.34,1.21-2.84,2.1    c-0.77,1.4-0.56,4.64-0.75,7.43C60.46,47.45,59.83,50.07,61.44,51.28z M100.32,72.72c2.18-1.62,5.08-2.65,5.84-5.38    c0.13-1.61,0.08-3.77,0.55-5.34c-1.07-0.74-1.37-2.48-3.58-1.79c-0.94,0.93-0.84,2.67-2.76,2.82    C99.34,65.24,98.51,69.95,100.32,72.72z M115.64,73.13c2.31-2.82,2.28-10.32-1.81-11.66c-0.43,0.26-0.74,0.63-1.21,0.86    C111.64,66.21,112.81,71.64,115.64,73.13z M94.94,66.74c2.16-1,2.64-3.35,3.49-5.39c-0.91-1.11-0.68-3.48-0.51-4.34    c-0.46-1.07-1.6-0.98-2.71-0.56C93.97,58.97,93.67,63.39,94.94,66.74z M129.61,75.91c1.98,1.6,4.85,2.96,8.18,2.28    c-1.49-3.69-2.09-8.54-7.08-7.84c1.31,1.84,4.11,4.12,4.63,6.95c-2.3-0.41-4.92-1.86-6.98-3.14c-0.12-1.18-2.66-2.31-2.31-3.55    c2.07,2.1,4.89,4.98,7.76,4.97c-1.27-1.85-2.51-3.2-3.76-4.55c-2.84-1.11-5.88-1.98-8.98-2.78    C122.63,72.44,125.86,74.5,129.61,75.91z M138.05,79.18c2.61,0.36,5.02,2.73,7.73,3.37c3.5,0.83,7.14-1.15,9.6-3.18    c0.1-1.21,0.73-2.31,0.16-3.69c0.4-0.52,0.61-0.38,0.59-1.23c-4.65-3.66-8.34-9.94-17.05-9.03c-1.29,1.74-2.38,3.63-5.08,4.26    c2.49,2.29,3.71,4.87,4.66,8.55C138.63,78.67,138.31,78.91,138.05,79.18z M175.75,87.85c0.31,1.87-2.25,2.93-2.67,4.73    c2.91,0.33,5.34-1.32,6.93-2.14c1.42-0.72,3.26-1.22,3.64-2.77c-0.27-0.54-0.75-0.82-1.04-1.33c1.42-1.28,1.51-2.26,0.84-4.2    c-1.07-3.07-2.09-4.72-4.25-6.25c-0.96-0.69-3.33-2.01-4.47-1.83c-0.43,0.05-0.9,0.56-1.24,0.72c-2.76,1.38-6.17,2.43-8.54,4.66    c2.68,0.82,4.98,2.72,6.98,4.62C173.07,85.12,175.52,86.53,175.75,87.85z M99.68,62.07c1.62,1.13,2.23-2.23,2.75-2.81    c0.85,0.25,2.43-0.55,3.12,0.22c0.89-0.66,1.71-0.68,2.81-1.06c1.36,0.82,2.99,2.02,3.61,3.25c1.01-0.48,1.39-1.42,2.5-1.17    c-0.29-3.8-2.61-7.05-5.92-6.79c-0.65,0.05-1.97,0.89-3.4,1.12c-1.06,0.19-2.22-0.13-3.07,0.07c-0.98,0.25-2.54,1.35-2.87,1.81    C98.4,57.81,98.23,61.07,99.68,62.07z M92.82,58.62c2.98-2.04,0.8-7.92,1.99-10.65c0.58,2.08-0.11,5.69,0.74,7.54    c0.72-0.23,0.62-1.14,0.97-1.72c0.68-1.17,1.85-2.47,3.05-2.7c-0.87,1.44-2.26,2.49-2.72,4.27c0.57,0.21,1.18,0.38,1.43,1.01    c0.83-0.79,2.05-1.27,2.68-2.22c0.03-1.19-1.79-2.49-1.04-2.51c-0.08-0.19-0.17-0.39-0.23-0.59c-1.3-3.47-1.07-7.52,0.65-9.74    c-0.35-4.76-1.66-8.53-3.83-11.42c-0.44-0.6-1.81-1.7-2.54-1.62c-0.87,0.09-1.78,1.63-2.53,2.2c-1.6,1.26-4.17,2.2-6.3,2.64    c0,0.01-0.2,0.14-0.27,0.18c-2.24,1.05-3.61,3.38-3.41,5.97c0.68,8.63,7.09,14.48,10.43,20.35c0.09-2.86-1.03-5.33-0.25-7.15    C91.9,54.18,92.13,56.96,92.82,58.62z M106.22,60.29c0.4,0.21,0.42,0.91,0.99,0.91c0.27-0.67,0.88-1.06,1.44-1.49    C107.84,59.25,106.79,59.73,106.22,60.29z M118.08,66.4c4.91,1.77,14.79,5.92,19.19-0.18c-3.22,1.15-7.68,4.11-10.92,1.86    c2.67,0.32,5.85,0.15,7.77-1.34c0.38-0.06,0.77-0.1,1.15-0.15c0.69-0.59,2.3-1.15,2.28-1.87c-0.82,0.72-2.22,0.82-3.01,0.64    c0.95-0.73,2.55-0.97,3.79-1.47c-2.03-1.37-3.9-3.07-6.64-2.9c-3.62,0.22-10.44,4.06-14.49,2.87    C117.57,64.61,117.93,65.37,118.08,66.4z M156.35,78.82c2.07,0.56,5.05,0.91,7.07,0.2c0.04,0,0.12,0.02,0.15,0    c0.61-0.53,1.39-0.75,2.07-1.14c2.45-1.37,5.01-3.58,8.18-4.17c-3.68-8.2-17.42-12.54-27.81-8.21c4.45,1.95,7.34,5.9,11.13,8.68    c0.09,0.65-0.25,0.94-0.27,1.5c1.61-0.03,3.06,0.07,4.52-0.23c2.28-0.48,3.98-2.12,5.64-1.99c-2.45,2.64-6.46,3.14-10.35,3.12    C156.47,77.24,156.38,77.99,156.35,78.82z M114.8,60.91c1.1,0.38,1.49,1.66,2.2,2.53c6.76-0.83,16.17-1.68,17.24-8.16    c-1.16-1.19-3.11-1.38-4-2.91c2.13,0.19,3.54,1.74,4.96,2.35c0.61-3.48-2.32-5.24-5.82-4.59c1.63,6.11-5.69,7.97-10.46,8.4    c3.41-1.88,9.31-2.23,9.81-6.43c0.05-0.43-0.2-1.29-0.25-2.18c-0.14-2.34,0.18-4.5-1.08-5.44c-1.63-1.03-4.94-0.49-6.73,0.04    c0.13-0.41,0.52-0.64,0.76-0.97c-0.9-0.73-2.45-2.12-3.59-0.6c-0.37,0.03-0.23-0.61-0.78-0.36c-4.11,1.92-5.58,5.92-6.42,10.43    c0.46,0.43,0.83,0.95,1.58,0.99c0.45-1.64,1.11-3.56,2.06-4.94c0.65-0.93,1.7-2.18,2.97-2.25c-2.24,2.05-3.56,4.81-4.51,7.87    c0.38,0.41,0.82,0.73,1.03,1.35c2.95,0.6,4.5-2.25,6.69-1.8c-1.37,1.28-3.48,2.51-5.86,2.59C114.97,58.61,115.81,59.6,114.8,60.91    z M51.19,28.7c3.05,2.95,6.82,4.98,9.23,8.75c0.89-1.09,2.37-1.4,3.54-2.33c1.22-0.94,1.87-2.44,4.29-2.25    c2.77,1.35,3.79,2.31,6.07,4.27c5.08-0.93,3.71,2.59,6.64,4.07c-0.92-4.32-3.27-6.61-5.56-9.92c-2.01-2.86-3.01-5.69-5.18-7.91    c-3.84-3.94-9.85-5.1-15.95-4.74c-0.21,0.45,0.19,1.38-0.26,1.64c-1.83-0.61-3.05-0.98-4.5,0.38c-1.66,1.57-2.83,5.48-2.59,8.07    C48.61,28.68,49.43,29.23,51.19,28.7z M101.97,54.04c1.72,0,4.23-0.51,5.75-0.97c0.08-0.32,0.23-0.6,0.67-0.65    c1.04-4.91,3.72-8.53,4.74-13.47c-2.18-2.43-5.75-1.67-8.26-0.36c-0.5,0.28,0.31,0.92-0.29,1.22c-0.24-0.19-0.65-0.2-0.8-0.5    c1.33-7.84-2.42-15.06-7.53-18.05c-2.74,1.94-6.17,4.02-5.32,8.39c1.15-0.66,1.63-1.86,2.94-2.39c4.67,2.07,6.79,8.16,7.13,13.4    c0.49-0.09,0.89-0.41,1.19,0.01C98.05,43.08,99.94,51.08,101.97,54.04z M108.58,52.84c0.5-0.17,1.15,0.31,1.45-0.17    c0.34-4.25,2.43-8.23,5.82-10.51c-0.02-1.23,0.6-1.98,0.34-3.4c-0.81-0.11-1.96,0.26-2.38-0.32    C112.68,43.72,110.15,47.89,108.58,52.84z M140.18,64.25c-0.31,0.04-0.6,0.11-0.88,0.28C139.59,64.43,139.88,64.34,140.18,64.25    c1.45-0.16,3.02,0.93,4.45,0.82c0.99-0.09,2.06-0.89,3.09-1.24c1.14-0.39,2.43-0.67,3.56-0.86c4.41-0.74,7.48,0.48,10.69,1.09    c0.04,0.02,0.11,0,0.15,0c2.11-0.25,3.85-2.17,5.34-3.41c1.97-1.65,3.54-3.33,4.35-5.5c-4.8-0.08-10.22,0.63-13.64-1.2    c1.22-0.64,2.35,0.29,3.56,0.47c3.07,0.46,6.31-0.2,9.09-0.18c-2.77-1.77-6.79-2.25-10.34-3.04c-3.17-0.73-6.36-1.03-10.21-0.72    c-0.21,1.01-0.18,1.78-0.88,2.45C149.84,58.73,145.78,62.41,140.18,64.25z M139.59,63.45c-0.15,0.02-0.35,0.12-0.11,0.17    c4.02-1.38,8.29-3.67,8.86-8.23c-1.37,0.88-2.77,3.36-4.17,3.28c2.13-2.75,5.27-4.69,5.09-9.26c-2.63-0.28-5.51-1.23-8.01-0.67    c0.03-0.27,0.18-0.21-0.18-0.28c-2.33-0.37-4.14,0.09-6.37,0.74c-0.05,0.45-0.05,0.53-0.52,0.5c1.04,1.03,3.48,4.93,0.97,5.77    c-0.22,2.07-1.68,3.14-2.53,4.7C135.38,60.72,137.4,62.2,139.59,63.45z M163.6,64.18c2.45,1.45,5.25,2.43,7.27,4.44    c9.87-0.41,16.92-4.18,22.37-8.32c2.48-1.89,4.41-4.16,5.37-6.78c-0.02-0.59-0.87-0.14-0.83-0.78c0.05-0.8,0.92-0.93,0.97-1.74    c-7.87-2.74-17.86,0.83-26.16,3.34c0.29,0.45,0.24,0.29,0.26,1.01C170.9,59.18,167.76,62.08,163.6,64.18z M131.85,46.02    c-0.55,1.41-2.21,1.93-2.52,3.51c1.07-0.03,3.05-0.5,4.1-0.03c0.63-1.13,2.28-1.5,3.46-1.73c2.29-0.44,3.85-0.15,5.72-0.07    c1.86,0.06,3.83,0.77,5.33,0.4c1.08-0.26,2.61-1.56,3.53-2.46c1-0.99,2.17-2.11,2.88-2.98c0.68-0.81,0.72-2.03,1.77-2.55    c-0.54,3.65-4.21,5.94-6.96,8.29c2.38-0.27,4.46-1.03,5.91-2.15c3.19-2.49,5.9-6.87,5.87-11.4c-2.35-0.6-6.58-1.47-9.41-1.4    c-1.27,0.04-4.56,1.1-4.71,1.13c-0.6,0.18-1.99,0.89-3.12,0.95C139.49,38.32,135.42,42.3,131.85,46.02z M116.71,41.91    c0.55,0.04,0.6-0.32,1.14-0.28c0.32-2.03,1.07-3.98,1.81-5.79c0.73-1.77,1.28-3.82,2.79-5.02c-1.4,3.45-2.91,6.8-3.74,10.7    c1.93-0.4,2.48,0.97,3.43,1.8c0.04-0.33,0.71-0.13,1.01-0.26c1.24-4.64,4.35-7.77,7.86-10.61c0.27-3.12,0.76-7.1-0.37-10.81    c-0.62-2-1.82-3.74-2.52-5.28c-6.94,5.04-13.36,11.17-13.06,21.48c0.75-0.38,0.36-1.34,0.5-1.97c0.26-1.17,0.82-2.52,1.2-3.66    c0.4-1.23,0.55-2.69,1.54-3.12c-0.62,2.7-1.76,5.61-1.94,8.59C117.66,38.53,116.93,40.71,116.71,41.91z M105,35.93    c0.08,0.55-0.15,1.54,0.05,1.74c2.71-1.76,6.54-1.4,8.42,0.49c0.96-3.22-0.24-8.5-2.62-9.95c-2.54,1.84-4.59,4.08-5.15,7.49    C105.55,35.85,105.34,35.94,105,35.93z M124.17,43.09c3.41-0.34,5.24,1.98,5.32,4.07c1.84-1.74,3.61-3.65,5.52-5.48    c3.52-3.34,7.49-6.17,8.74-10.71c-1.83,1.88-4.81,2.64-7.3,4.09c-1.83,1.07-3.5,2.26-5.23,2.95c3.48-4.38,11.11-5.49,14.54-9.9    c-5.34-1.49-11.75,2.68-14.33,5.48C128.1,35.8,125.42,38.63,124.17,43.09z M153.26,48.36c-1.08,0.52-2.53,0.45-3.07,1.39    c3.03-0.46,4.86-0.28,7.19,0.04c0.89,0.12,1.78,0.47,2.4,0.45c1.97-0.05,4.46-1.45,6.03-2.46c4.91-3.21,7.56-9.07,7.73-15.43    c-0.54-0.12-1.09-0.29-1.66-0.39c-0.11-0.53-0.45-0.76-0.58-1.25c-5.69-1.8-17.11-1.63-20.63,1.81c3.35,0.32,7.24,0.74,9.35,0.97    c-0.16,0.03-0.41,0.01-0.42,0.19c0.59-0.21,1.03,0.57,1.34,0.14c-0.22-0.08-0.97-0.31-0.65-0.5c0.67,0.46,1.56,0.85,1.64,1.56    c0.48,3.77-3.02,8.19-4.37,10.34c2.5-1.32,4.75-3.52,7.27-4.38c-2.44,2.02-4.68,4.19-8.02,5.49c-0.28,0.03-0.23-0.37-0.6-0.21    C155.44,46.87,154.47,47.79,153.26,48.36z M131.72,23.44c0.33,2.31,0.89,6.04,0.35,8.03c3.82-2.25,9.1-6.08,14.33-4.16    c4.91-5.48,10.66-16.89,4.55-25.32c-0.12-0.04-0.29,0.03-0.31-0.12c-1.05-0.04-1.36,0.51-2.12,0.69c-0.05-0.28-0.5-0.04-0.49-0.39    c0.03-0.46,0-0.95,0.13-1.33c-6.79,0.67-11.91,4.78-14.34,7.83c-0.4-0.44-0.37,0.57-0.98,0.41c-0.95,1.92-2.92,3.59-4.27,6.22    c0.43,0.66,1.47,2.68,1.35,2.78c-0.04,0.69,0.35-0.25,0.47,0.24c0.46,0.43-0.35,0.46,0.1,0.72c0.71-0.2,0.43,1.2,0.41,1.13    c0.27,0.84,0.84,1.71,1.06,2.81C132.01,23.17,131.7,23.25,131.72,23.44z" />
		<path class="st1" fill="#E33360"
			d="M50.42,172.14c-0.21-0.39,0.68-1.69,1.06-2.18c2.38-3.04,6.16-6.11,7.65-9.99c-3.25,3.43-6.45,7.6-9.46,10.79    c-0.22-4.99,1.61-9.06,3.36-12.72c2.51-5.25,5.2-10.34,9.17-14.56c0.31-0.57-0.36-0.61-0.12-1.02c4.43-3.45,8.18-7.45,10.89-12.27    c1.23,0.96,1.65,2.9,3.32,3.28c1.64-2.43,4.31-4.03,6.01-6.41c0.22-0.07,0.26,0.1,0.45,0.08c-0.14,0.51,0.17,0.62,0.24,0.85    c-0.22,0.4-0.15,0.38-0.66,0.67c-0.64,3.06-1.03,6.16-2.28,9.36c-0.74,1.88-1.18,3.93-1.99,5.66c-0.96,2.08-2.47,4.19-3.68,6.15    c-0.65,1.04-1.26,2.02-1.85,3.01c-0.99,1.61-2.12,3.19-3.42,4.65c-4.4,4.91-10.45,10.15-16.45,13.79    C52.17,171.58,51.18,171.76,50.42,172.14z" />
		<path class="st1" fill="#E33360"
			d="M82.61,132.3c-0.04-0.02,0.02-0.85,0.28-0.18c-1.05,5.81-3.07,14.4-1.96,22.22c0.32,2.32,1.19,5,3.08,6.25    c5.04-2.97,6.76-8.57,8.63-14.06c0.79,1.28,0.98,3.46,2.31,3.54c1.42,0.08,1.65-1.74,2.97-2.25c0.33,1.18,0.44,1.84,0.38,3.18    c-0.54,11.72-5.03,20.88-14.3,25.88c0.39-2.05,0.94-3.99,1.34-6.03c-1.14,1.68-1.68,3.83-2.06,6.11    c-6.15-4.1-7.6-14.28-8.16-23.41c-0.25-4.14,1.85-5.76,3.5-9.07c1.11-2.21,2.01-4.91,2.74-6.77    C81.98,136.06,81.93,134.14,82.61,132.3z" />
		<path class="st1" fill="#E33360"
			d="M110.15,183.52c-2.82-1.47-4.96-4.41-7.26-6.93c-2.85-3.09-5.23-7.06-6.16-12.49    c1.28-3.67,2.19-7.64,2.24-12.29c2.35,3.81,3.4,7.89,6.55,10.98c0.54-0.11,0.91-0.34,1.09-0.72c0.69,0.84,1.16,1.96,2.07,2.55    c2.25-1.54,4.01-3.48,5.18-5.89c1.56,2.53,2.69,7.25,6.2,6.76c0.67,6.74-2.02,13.8-6.43,17.77c-0.85-0.1-1.37-0.6-1.89-1.1    C110.97,182.44,111.05,183.37,110.15,183.52z" />
		<path class="st1" fill="#E33360"
			d="M45.68,140.26c-2.44,1.82-6.07,1.32-8.23-0.07c0.01-3.46,1.16-6.01,1.91-8.88c2.9-0.68,5.08-1.93,7.58-2.94    C46.27,132.35,45.19,135.99,45.68,140.26z" />
		<path class="st2" fill="#E66A6D"
			d="M53.27,143.63c-3.17,1.14-6.72-1.12-6.9-5.06c-0.35-7.66,3.01-16.26,6.52-21.01    c-0.35,2.84,4.11,2.22,6.46,1.31c1.67-0.67,3.59-2.15,4.88-3.36c1.54-1.43,2.39-3.38,3.78-4.11c-1.52,3.62-4.71,6.02-4.34,10.63    c0.07,0.72,0.61,1.5,0.56,2.29c-0.1,1.73-2.03,3.1-2.4,4.53c1.74-0.33,2.15-2.86,3.18-4.18c3.78-1.38,5.42-2.06,7.93-3.7    c0.31,0.54-0.39,0.89-0.75,1.11c-0.54,3.38-3.09,5.17-4.2,8.11c1.21-0.17,1.79-1.65,2.49-2.63c0.72-1.03,1.38-2.2,1.81-3.3    c-0.27,1.03,0.69,3.82,0.56,4.78c-0.09,0.71-1.4,2.64-2.34,3.79c-2.31,2.81-4.43,5.61-7.45,7.91c-1.5,1.13-3.26,2.63-5.64,3.14    c-0.8,0.18-2.35,0-3.05,0.22c2.71-2.33,6.66-3.67,8.13-6.97C59.7,139.08,56.73,142.38,53.27,143.63z" />
		<path class="st2" fill="#E66A6D"
			d="M90.31,150.47c-1.6,3.62-3.05,7.02-6.27,9.23c-4.39-6.98-2.1-18.25-0.55-25.02c0.57,0.95,0.66,2.57,1.3,3.66    c3.26-0.75,4.22-3.31,6.97-4.48c-0.25,3.8,0.63,7.32,0.48,10.51C92.14,146.33,91.14,148.57,90.31,150.47z" />
		<path class="st1" fill="#E33360"
			d="M25.43,131.31c0.05-1.24-0.67-1.49-1.5-1.59c0.76-5.12,2.67-9.36,5.22-13.07c-0.26,2.78,2.09,3.72,4.91,4.41    c5.08,1.25,13.69-0.76,17.21-3.32c-1.01,2.83-3.17,5.89-3.89,9.4C41.51,130.69,32.91,132.26,25.43,131.31z" />
		<path class="st2" fill="#E66A6D"
			d="M108.97,163.42c-0.1,0.01-0.18,0.02-0.28,0.03c-0.91-0.75-1.04-2.46-2.11-2.97c-0.97-0.03-0.35,1.2-1.17,1.3    c-2.76-4.44-5.22-9.25-7.01-14.88c2.13-3.14,4.01-6.46,4.78-10.68c1.37,1.19,2.28,4.74,4.05,4.51c1.6-0.21,1.31-3.03,2.8-3.71    c0.42,6.64,3.47,12.99,3.5,18.67C113.51,159.1,111.35,161.38,108.97,163.42z" />
		<path class="st1" fill="#E33360"
			d="M119.27,164.85c-1.55,0.17-5.21-6.44-4.92-9.4c0.76,0.12,1.28,1.95,2.33,2.23c4.6-3.71,6.49-9.58,6.06-17.28    c3.83,7.55,3.15,15.94,0.46,22.82c-0.58-0.17-0.58-1.05-1.3-1.02C120.48,162.51,120.45,164.73,119.27,164.85z" />
		<path class="st2" fill="#E66A6D"
			d="M36.31,120.23c-2.24-0.24-4.1-0.5-5.74-1.39c-0.54-1.36-0.56-3.51-0.17-5.12c0.67-2.71,1.89-5.72,3.26-7.42    c-0.15-0.66,0.01-1.07,0.27-1.5c0.7-1.18,3.01-2.7,4.38-3.89c0.71-0.59,1.53-1.24,2.28-1.87c1.62-1.38,3.34-2.83,5.97-2.9    c-0.26,1.26-1.24,2.01-1.81,3.3c-0.58,1.31-1.39,3.97-0.86,5.24c0.52,1.22,2.41,0.94,3.82,1.16c1.19,0.2,2.5,0.99,3.64,1.04    c2.32,0.11,4.12-0.71,5.75-1.11c-1.13,2.66-2.42,4.77-3.51,7.74c-0.23,0.66-0.37,1.76-0.76,2.29c-0.59,0.83-5.13,3.16-7.33,3.8    c-2.06,0.59-5.11,1.13-7.06,1.11C37.73,120.7,37.05,120.3,36.31,120.23z" />
		<path class="st3" fill="#EA8E7A"
			d="M94.85,149.2c-2.76-3.78-1.78-10.96-2.47-16.27c1.97-2.3,3.15-5.92,3.98-8.69c0.49-0.11,0.88,2.98,2.39,2.96    c1.02-0.01,1.42-1.3,1.96-2.15c0.4,1.64,0.77,3.45,1.08,5.46c0.21,1.44,0.85,2.88,0.92,4.16c0.09,1.46-0.88,3.56-1.44,5.15    C99.86,143.62,97.87,146.68,94.85,149.2z" />
		<path class="st1" fill="#E33360"
			d="M11.82,108.98c-0.75-0.25-1.39-0.91-2.19-1.2c-3.15-1.14-6.17-2.24-8.79-3.68c0.67-3.22,3.43-5.32,5.93-7.13    c5.86-4.28,13.84-6.95,21.96-9.31c-0.67,1.39-1.71,2.5-2.18,4.07c2.58,5.01,8.61,5.63,15.82,4.76c-3.3,3.12-7.63,5.44-9.75,9.5    c-4.12,2.07-8.89,3.72-14.27,3.56C16.15,109.48,13.66,109.59,11.82,108.98z" />
		<path class="st2" fill="#E66A6D"
			d="M121.76,139.62c0.74,7.56-1.03,13.13-5.08,16.88c-4.4-4.33-4.4-13.94-6.2-21.72c0.93-2.12,1.1-4.84,1.5-7.37    c1.14,1.04,2.18,3.1,4,4.23C117.32,135.05,119.61,137.24,121.76,139.62z" />
		<path class="st1" fill="#E33360"
			d="M147.08,161.77c-3.64,0-8.17-2.58-10.1-4.83c1.29-0.25,2.44-0.62,2.92-1.52c1.93,0.8,3.04-1.31,3.62-2.91    c1.12-3.09,0.75-8.89,0.52-11.95c-0.11-1.38-0.41-3.15-0.82-4.45c4.42,5.37,9.77,14.86,7.62,23.9c-0.78,0.17-1.04-0.35-1.78-0.21    C148.26,160.56,148.79,161.78,147.08,161.77z" />
		<path class="st3" fill="#EA8E7A"
			d="M86.5,136.69c0.13-1.33,1.51-2.84,1.83-4.47c-1.27,0.84-1.72,3.45-3.29,4.49c-1.35-6.3-1.63-13.38-1.3-19.95    c1.83-1.36,5.8-1.02,6.37-3.38c0.92,0.32,2.33,0.55,3.14,0.52c0.08,3.19,2.24,5.63,2.27,8.24    C95.59,128.49,91.41,133.43,86.5,136.69z" />
		<path class="st2" fill="#E66A6D"
			d="M139.89,154.24c-0.71,1.12-2.61,2.45-4.37,1.54c-3.93-2.71-6.83-7.77-9.31-13.14    c1.05-0.11,2.06,1.07,3.18,0.79c1.5-0.38,2.05-3.83,2.12-5.67c0.14-3.83-0.54-7.43-1.69-12.13c-1.06-4.3-2.18-7.67-3.46-10.74    c1.12,0.19,4.15,0.49,5.09-0.45c1.08,2.6,2.24,4.83,4.02,6.86c0.72,0.82,1.83,1.3,2.46,2.21c1.44,2.08,2.39,6.12,3.28,9.16    c0.58,2.07,1.43,4.09,1.86,5.95c0.83,3.69,0.36,9.52-0.1,12.92c-0.14,0.94-1.27,2.15-1.56,2.96    C140.67,154.7,140.28,154.48,139.89,154.24z" />
		<path class="st3" fill="#EA8E7A"
			d="M75.62,130.17c0.12,0.67-0.18,1.01-0.11,1.63c-1.37-1.07-2.08-2.72-2.3-4.58c-0.25-2.19,0.7-4.63,0.29-6.34    c2.85-1.81,4-4.98,5.39-7.96c0.85,2.02,1.16,4.72,4,4.23c-0.01,2.99-0.21,5.34-0.1,7.93c-0.96,0.79-1.73,2.22-2.71,3.25    c-1.1,1.18-2.63,2.06-3.56,3.49c-0.55-2.43,1.48-4.6,0.95-7.01C76.42,126.26,76.55,128.63,75.62,130.17z" />
		<path class="st3" fill="#EA8E7A"
			d="M55.48,118.58c-0.36,0.42-0.9,0.04-1.44,0.17c-1.01-3.14,0.54-5.74,1.55-8.09    C55.46,112.95,54.04,116,55.48,118.58z" />
		<path class="st3" fill="#EA8E7A"
			d="M65.64,117.54c-0.59,2.24,1.12,4.74-0.94,5.84C64.05,121.06,64.73,118.56,65.64,117.54z" />
		<path class="st3" fill="#EA8E7A"
			d="M107.25,139.7c-1.74-0.89-3.79-4.39-4.58-7.69c-0.57-2.39-1.38-6.03-1.13-8.52c0.06-0.63,0.62-1.23,0.81-1.85    c0.68-2.37,0.58-4.94,0.48-7.25c1.07,0.43,3.64,1.43,4.83-0.12c0.59,1.46,0.88,4.19,1.85,4.62c0.27,2.2,0.62,4.6,1.61,6.27    C111.01,130.43,109.82,135.95,107.25,139.7z" />
		<path class="st3" fill="#EA8E7A"
			d="M74.86,118.67c-1.77,1.93-5.23,2.89-8.15,4.32c-0.68-1.95-0.28-6.31,0.49-8.42    c2.77-4.38,4.97-9.21,7.33-13.92c2.43-1.61,3.38-5.13,5.39-6.64c-0.58,4.49-3.44,10.84-0.8,14.61    C78.14,112.73,77.24,116.09,74.86,118.67z" />
		<path class="st3" fill="#EA8E7A"
			d="M66.15,111.9c-2.34,2.93-4.79,5.78-9.64,6.7c-2.23-5.1,1.19-9.79,2.34-13.92c2.03-2.25,3.87-4.74,6.46-6.18    C63.7,102.3,61.28,109.48,66.15,111.9z" />
		<path class="st3" fill="#EA8E7A"
			d="M129.57,142.39c-6.21-0.71-9.21-5.41-12.45-9.85c2.04-2.4,2.48-6.69,1.35-11.17    c0.57-0.85,1.67-1.29,1.59-2.68c2.31,1.3,4.44-0.91,5.95-1.86c0.58,0.31,1.17,1.5,0.86,2.39    C128.86,124.92,132.43,136.12,129.57,142.39z" />
		<path class="st4" fill="#EEB487"
			d="M99.06,126.13c-0.15,0-0.29,0.03-0.44,0.05c-2.06-3.49-3.5-7.74-4.54-12.54c0.62-0.74,1.33-1.4,1.31-2.65    c1.09,0.65,3.32,0.66,4.52-0.22c0.59,1.06,1.77,2.29,2.08,2.68C102.66,118.99,101.11,122.75,99.06,126.13z" />
		<path class="st3" fill="#EA8E7A"
			d="M58.1,104.48c-4.32,2.25-9.77,1.35-13.36-0.06c-0.13-3.84,1.67-6.12,3.25-8.59c2.74-0.16,4.71-0.67,6.7-1.65    c1.17-0.59,2.45-1.51,3.48-1.73c0.73-0.16,1.47,0.11,2.2,0.03c2.02-0.21,4.16-1.14,5.66-1.83c3.94-1.8,6.47-5.27,9.51-7.71    c0.82,1.36-0.75,2.52-1.33,3.67c-0.65,1.32-0.79,2.87-1.58,4.01c-0.21,0.29-0.5-0.08-1.02,0.12c-1.77,1.98-4.08,3.53-5.17,6.02    c-0.38,0.06-0.83,0.06-1,0.28C62.63,99.21,59.89,101.48,58.1,104.48z" />
		<path class="st4" fill="#EEB487"
			d="M87.48,114.86c-2.8-0.77-4.66,2.81-6.47,1.18c-1.38-1.23-1.25-4.54-0.75-6.5c3.38,0.65,10.69-7,3.63-5.27    c-0.6-0.74,0.11-2.16-0.47-2.88c-0.78,0.1-0.82,2.68-0.18,3.54c0.74,0.33,2.04,0.41,2.77-0.16c-0.55,2-5.8,6.1-6.94,2.12    c-1.13-3.91,1.55-10.46,1.98-13.29c0.29,2.52,0.8,6.75,3.05,7.28c1.65,0.41,3.35-0.91,4.13-2.23c0.79,2.13,4.07,1.86,5.45,2.74    c-0.79,1.73-2.66,2.62-4.75,3.34c0.7,2.5,1.88,4.38,4.88,3.97c0.23,0.45,0.58,0.72,0.73,1.24c-0.91-0.01-2.24,0.63-3.43,0.83    c-1.5-0.41-1.82-2.33-2.88-3.33c-1.05,1.25,0.11,4.41,1.23,5.58C88.65,113.51,88.18,114.27,87.48,114.86z" />
		<path class="st3" fill="#EA8E7A"
			d="M117.89,121.59c0.64,3.57,0.74,7.37-0.77,9.62c-3.52-2.27-6.63-7.3-6.6-12.45c0.82-0.18,0.71-0.36,0.91-0.98    C112.87,119.83,114.55,123.07,117.89,121.59z" />
		<path class="st3" fill="#EA8E7A"
			d="M67.55,110.13c-1.69,2.67-3.59-1.76-3.51-3.69c0.09-2.12,0.92-4.01,1.31-5.14c-0.56,2.48-1.25,6.15,0.53,8.3    C66.42,109.79,66.91,110.06,67.55,110.13z" />
		<path class="st2" fill="#E66A6D"
			d="M35.82,95.93c-1.74-0.07-3.95-0.56-5.25-1.15c-0.96-0.43-3.01-2.1-3.11-2.73c-0.12-0.71,0.85-2.2,1.28-2.78    c2.3-3.18,5.82-6.1,9.47-8.14c-1.4-0.29-3.27,1.25-4.63,1.86c2.18-3.02,7.51-5.35,13.13-5.64c0.32-0.06,0.28-0.4,0.21-0.75    c3.14,1.17,7.47,1.29,11.49,0.42c0.97,1.31,2.24,2.27,3.84,2.79c-2.14,1.8-6.58,2.54-8.04,5.19c-0.99,1.78-0.58,4.05,0.38,5.82    c0.88,0.22,1.22,1.12,2.2,1.22c-2.49,1.66-5.53,2.9-9.92,3.05c-0.43,0.11-0.3-0.49-0.64-0.5C44.42,95.9,38.64,96.04,35.82,95.93z" />
		<path class="st3" fill="#EA8E7A"
			d="M70.24,106.73c-0.91,1.46-1.32,2.93-3.52,2.47c-0.37-0.68-1.04-1.45-1.17-2.5c-0.03-0.22,0.3-0.52,0.32-0.93    c0.05-0.51-0.23-1.14-0.18-1.59c0.07-0.65,0.48-1.35,0.63-2.13c0.92-4.65,2-8.07,5.73-10.05c-1.03,2.13-1.13,7.07,1.54,8.19    C72.82,102.17,71.53,104.69,70.24,106.73z" />
		<path class="st1" fill="#E33360"
			d="M164.12,141.74c-8.07,1.97-13.18-2.42-18.37-5.19c-1.07-1.14-2.25-2.14-3.43-3.12    c-0.82-2.81-2.17-5.78-2.73-8.34c3.16,1.95,10.04,7.8,14.4,4.05c0.15-0.54-0.06-1.36,0.24-1.79c2.23-0.89,2.79,0.8,4.04,1.88    c2.19,1.89,4.74,4.45,6.96,5.65c0.19,0.09,0.36,0.19,0.55,0.29l-0.29,0.56c-0.33,0.95,0.32,1.56,0.13,2.34    c-0.31,1.12-1.5,0.91-2.29,1.74C163.26,140.83,164.12,140.74,164.12,141.74z" />
		<path class="st1" fill="#E33360"
			d="M29.47,86.69c-5-0.69-9.71-4.22-13.18-7.42c-1.11-1.01-2.84-2.22-2.38-3.98c0.7-0.51,2.81,1.41,4,0.27    c-0.55-0.79-2.24-0.14-2.76-0.99c1.04-2.75,5.39-3.5,8.69-4.82c3.51-1.41,9.11-2.67,13.2-1.24c-0.79,1.13-3.86,2.36-1.88,4.03    c5.08-0.34,8.05,2.01,11.43,3.81c-3.39,0.33-6.79,1.2-10.07,2.93c-1.39,0.75-2.83,2.63-4.06,2.97c-1.29,0.37-2.97-1.1-4.5-0.79    c0.89,0.99,2.29,1.32,3.85,1.45c-0.28,0.77-1.15,1.39-0.76,2.3c-0.38,0.62-0.97,1.06-1.42,1.62    C29.52,86.85,29.48,86.78,29.47,86.69z" />
		<path class="st4" fill="#EEB487"
			d="M94.35,110.82c0.8,3.04-5.39,2.71-5.17-0.28C90.29,111.87,92.39,111.56,94.35,110.82z" />
		<path class="st4" fill="#EEB487"
			d="M109.82,117.83c-1.15-0.87-0.79-3.65-1.97-4.46c0.68-1.87-0.52-4.88-2.53-5.29    c-0.59,0.63,0.17,1.71,0.28,2.46c-1.58-0.6-1.69-3.06-4.24-2.44c-0.18-0.92,0.13-1.89-0.74-2.55c0.63-1.92,2.2-3.08,2.79-5.03    c0.35,1.12,0.72,3.38,0.35,4.36c0.86,1.14,1.97,1.95,3.76,1.92c0.36,1.66,1.77,2.06,2.13,3.27c2.64,1.93,4.25-0.39,4.65-2.88    c0.99,0.46,1.12,2.01,1.94,2.71c0.24,4.56,3.08,6.72,7.01,6.07c0.54-0.49,0.73-1.25,0.62-2.26c0.92,0.31,1.43,1.16,1.74,2.29    c-1.32,0.99-4.17,3.8-5.59,1.24c-0.57-0.18-0.72-0.05-1.19-0.16c-1.42-0.82-2.4-4.72-4.46-4.32c-1.01,0.19-1.63,1.42-1.62,2.54    C111.58,115.96,111.17,117.26,109.82,117.83z" />
		<path class="st4" fill="#EEB487"
			d="M119.18,118.65c-0.77,4.43-6.99,2.16-6.58-2.31c0.16-0.28,0.86,0.14,1.14-0.28    c-0.07-0.53-0.13-1.07-0.19-1.59c0.39-0.26,0.65-0.62,1.07-0.86c1.33,0.66,1.93,2.25,2.89,3.34    C118.08,117.58,118.77,117.95,119.18,118.65z" />
		<path class="st4" fill="#EEB487"
			d="M106.19,114.29c-1.93,0.8-5.76-2.95-5.64-4.33c0.06-0.71,0.69-1.19,1.48-1.21c1.97-0.03,2.04,2.91,3.71,2.94    c0.53-0.24,0.9-0.6,0.71-1.41C107.69,111.21,107.2,113.86,106.19,114.29z" />
		<path class="st4" fill="#EEB487"
			d="M100.35,106.9c0.68,4.19-4.58,4.94-5.7,1.54c1.17-0.66,2.09,1.09,3.83,0.14    C99.16,108.07,99.45,107.26,100.35,106.9z" />
		<path class="st4" fill="#EEB487"
			d="M74.39,99.5c-3,0.38-2.27-7.29-0.82-8.4c0.76,1.75,0.59,4.54,2.25,6.77C75.48,98.56,75.13,99.41,74.39,99.5z" />
		<path class="st4" fill="#EEB487"
			d="M96.47,102.51c0.79,4.76-5.03,7.71-6.58,2.82C91.95,104.17,94.61,103.52,96.47,102.51z" />
		<path class="st2" fill="#E66A6D"
			d="M153.22,128.77c-2.8,1.85-6.19-0.33-8.7-1.63c-2.42-1.23-3.96-2.77-5.95-4.44c-0.58-0.49-1.36-0.74-1.91-1.25    c-2.49-2.29-3.35-5.4-5.16-7.76c0.83-1.76,0.02-3.94,0.37-5.62c1.8,1.09,6.74,4.26,9.17,1.87c0.91-0.89,0.75-2.3,1.02-3.93    c-0.47-0.55-0.7-1.19-0.88-1.81l0.76-0.52c0.61,1.64,2.37,2.23,3.61,3.39c1.6,1.47,3.28,3.43,4.75,5.47    c2.67,3.7,5.65,7.46,6,13.68c-1,0.13-2.11,0.16-2.88,0.47C153.13,127.37,153.39,127.89,153.22,128.77z" />
		<path class="st4" fill="#EEB487"
			d="M97.97,107.91c-0.92,0.41-1.52,0.1-1.97-0.5c0.42-1.48,1.46-2.44,1.42-4.28c1.03-0.28,1.27-1.88,1.97-1.98    c1.05,0.6,1.03,2.23,0.85,3.42C99.99,105.95,98.52,107.1,97.97,107.91z" />
		<path class="st3" fill="#EA8E7A"
			d="M57.93,91.59c-3.18-0.5-4.56-4.52-2.28-6.92c1.58-1.65,6.34-3.8,9-4.71c3.3-1.16,6.94-1.65,9.52-2.58    l0.14-0.03c0,0.08,0.02,0.19,0.04,0.31c-3.24,2.12-6.77,4.78-11.93,4.6c0.61,0.96,2.24,0.84,3.17,0.66    c3.61-0.69,7.37-2.72,8.85-4.55c0.49,0.27,0.74,0.84,1.16,1.19c-2.69,6.1-7.86,10.25-15.9,12.11c-0.59,0.18,0.14-0.58-0.5-0.52    C58.75,90.86,58.56,91.64,57.93,91.59z" />
		<path class="st4" fill="#EEB487"
			d="M122.74,115.3c-3.45,0.32-5.88-2.24-5.37-5.83C118.32,112.25,123.91,111.48,122.74,115.3z" />
		<path class="st4" fill="#EEB487"
			d="M113.17,107.32c0.34,1.84-1.18,3.5-2.83,2.23c-0.35-1.51,0.05-2.73,0.09-4.26    C111.81,105.36,112.21,106.7,113.17,107.32z" />
		<path class="st4" fill="#EEB487"
			d="M94.15,102.79c-0.35-0.27,0.65-0.67,0.57-1.38c-0.19-1.49-2.72-1.19-4.15-1.58    c-0.85-0.81-1.76-1.56-2.75-2.17c-0.84,1.05-1.59,2.71-3.69,2.33c-1.31-1.16-2.09-3.64-1.97-5.64c1,0.23,2.23,2.33,3.81,2.5    c0.41,0.03,0.92-0.08,1.31-0.02c3.5,0.62,5.02,3.74,9.16,1.73c0.97,0.26,1.27,1.38,2.37,1.48c-0.43,0.71-0.92,1.37-1.38,2.07    c-0.54,0.01-0.47-0.72-1.09-0.61C95.51,101.85,95.08,102.51,94.15,102.79z" />
		<path class="st4" fill="#EEB487"
			d="M109.27,107.92c-0.53,0.01-0.52-0.66-0.85-0.92c0.56-1.48,1.46-2.71,1.04-4.96c0.92,0.67,2.57,0.9,3.41,0.33    c-0.04,1.67,1.02,1.94,1.39,3.07c1.75,0.35,2.81-0.78,3.46-1.72c1.56,2.04,3.75,2.41,4.77,5.6c0.24,0.74,0.07,1.74,0.3,2.61    l0,0.16c-1.44-0.08-4.2-2.14-4.93-3.4c-0.58,0.2-0.57,0.46-1.29,0.29c-0.69-1.01-1.09-2.39-2.23-2.82    c-0.5,0.01-0.58,0.33-0.81,0.54c-0.86-1.18-1.82-2.25-3.38-2.56C109.07,104.79,109.61,106.7,109.27,107.92z" />
		<path class="st1" fill="#E33360"
			d="M184.97,136.82c-11.34,3.96-21.77-3.75-28.02-10.09c0.75-4.74-2.84-10.08-5.43-13.89    c-1.34-1.96-2.97-3.61-3.97-5.11c6.16-0.44,8.28,4.24,12.6,6.16c0.57-0.34,0.3-1.34,0.5-1.97c3.82,1.18,10.5,0.92,13.29-1.84    c5.41,4.25,9.26,10.44,12.96,16.84C187.7,130.1,188.87,133.78,184.97,136.82z" />
		<path class="st4" fill="#EEB487"
			d="M108.63,103.73c0.08,2.29-2.4,2.9-3.96,1.21c0.12-1.26,0-2.59,0.01-3.67c0.52,0.86,0.55,2.88,2.05,2.55    c0.71-0.16,0.7-0.93,1.15-1.6C108.26,102.39,108.61,102.99,108.63,103.73z" />
		<path class="st3" fill="#EA8E7A"
			d="M122.8,112.08l0-0.16c2.3-0.9,1.14-4.52,1.71-6.8c2.26,1.23,4.86,2.05,5.84,4.89    c0.25,0.55,0.55,0.64,0.96,0.63c0.72,5.71-5.94,3.52-7.79,1.2C123.35,112.03,123.11,112.11,122.8,112.08z" />
		<path class="st4" fill="#EEB487"
			d="M101.33,102.82c-0.31-0.32-0.53-2.17-1.35-2.78c0.63-0.28,1.31-0.54,1.8-0.94c0.58-0.01,0.74,0.51,1.11,0.75    C102.48,100.92,101.85,101.82,101.33,102.82z" />
		<path class="st4" fill="#EEB487"
			d="M92.43,98.13c-0.69-0.12-1.88-0.97-3.25-1.52c-2.13-0.88-4.49-0.93-5.86-2.41c-0.82-0.88-1.33-2.27-1.38-3.07    c1.94,0.54,4.78,1.37,8.27,0.51c0.68,1.71,2.07,3.35,4.02,2.9c-0.25-0.89-1.34-0.75-1.92-1.24c1.11-0.07,3.31,1.14,4.6,0.35    c2.21-1.38-1.37-5.22-2.76-6c0.27-0.79,0.83-1.36,0.75-2.42c0.39,0.54,1.67,1.75,2.52,2.64c0.52,0.55,0.32,1.01,0.99,1.06    c0.77,0.05,0.96-0.51,1.03-1.29c1.3,0.61,2.28,1.66,3.37,2.55c-0.19,2.39-3.2,2.55-4.68,3.92c0.58,0.92,1.61-0.27,1.87-0.36    c0.11-0.05,0.45,0.12,0.6,0.07c0.83-0.3,1.35-0.99,2.3-1.59c-0.26,1.41-0.73,2.66-0.99,4.08c-2.53-0.25-2.66,1.4-4.49,1.71    c-0.09-0.81,0.97-1.93-0.12-2.33C97.07,97.24,95.06,98.61,92.43,98.13z" />
		<path class="st4" fill="#EEB487"
			d="M80.4,91.91c-1.64,1.47-2.62,3.44-3.94,5.15c-2.19-3.39-3.05-10.71,0.45-12.53c1.81,0.95,5.05,1.61,7.69,0.43    c0.22-0.42,0.31-0.84,0.32-1.24l0.48-0.02c0.11,0.45,0.5,1.04,0.1,1.44c0.77,2.9,3.74,3.04,4.5,5.94    c-1.46-0.49-3.06,0.56-4.97,0.14c-2.37-0.51-4.17-2.59-4,1.05C80.66,92.35,80.86,91.73,80.4,91.91z" />
		<path class="st5" fill="#EFCFBC"
			d="M106.62,102.81c-0.82-0.2-1.16-2.08-0.6-2.58c-1.47-1.4,0.14-3.92,1.31-5.14c0.52,0.14,0.81,0.34,1.5,0.27    c0.2,0.64,0.59,1.02,0.65,1.82c-2.4-0.35-1.44,3.25-0.51,4.32C107.87,100.86,106.58,101.74,106.62,102.81z" />
		<path class="st4" fill="#EEB487"
			d="M100.97,97.15c1.49,1.71-2.2,3.04-2.76,1.48C99.73,98.62,99.46,97.18,100.97,97.15z" />
		<path class="st5" fill="#EFCFBC"
			d="M104.66,99.8c-2.05,0.45-2.53-2.47-1.92-3.88C103.22,97.4,103.99,98.53,104.66,99.8z" />
		<path class="st4" fill="#EEB487"
			d="M123.45,109.94c-0.67-1.54-1.18-3.28-2.27-4.3c2.43-2.15,0.4-5.71-2.07-6.5c0.27-0.26,0.52-0.55,0.94-0.7    c0.78,2.5,4.48,1.72,5.45-0.26l0.24,0.11c-0.29,0.74,0.67,1.27,0.96,1.87c1.23,2.45,2.23,5.67,4.35,7.12    c-0.36,0.53,0.21,1.28,0.12,2.34c-0.76-2.08-2.64-3.33-4.62-4.45c-0.71-0.4-1.73-1.19-2.19-1.06    C122.8,104.56,124.1,108.16,123.45,109.94z" />
		<path class="st5" fill="#EFCFBC"
			d="M112.11,102.02c-2.09,0.06-3.85-1.8-3.26-4.03C110.79,98.25,111.27,100.34,112.11,102.02z" />
		<path class="st2" fill="#E66A6D"
			d="M47.9,76.02c-2.16-0.8-3.75-2.46-5.97-3.42c-2.01-0.85-4.11-0.63-6.44-1.15c0.55-1.29,2.22-1.87,3.36-2.59    c4.77-1.74,15.65-3.31,20.16-0.72c-0.85,1.45-3.6,1.47-3.59,3.2c0.01,0.89,0.82,0.97,1.24,1.77c0.55,1.08,0.45,2.4,1.25,3.22    C55.26,76.88,50.74,77.09,47.9,76.02z" />
		<path class="st5" fill="#EFCFBC"
			d="M121.63,103.25c-0.01,1.34-1.59,2.16-2.68,0.9c-0.18-0.22,0.14-0.46,0.08-0.6c-0.4-1.09-1.97-2.32-1.19-3.97    C119.2,100.51,121.66,101.01,121.63,103.25z" />
		<path class="st5" fill="#EFCFBC"
			d="M107.38,94.21c-1.48,0.84-2.04,2.4-2.61,3.97c-1.36-1.11-0.78-3.39-1.31-4.99c0.65,0.05,0.11-0.64,0.91-0.99    c-0.06,0.51,0.23,0.59,0.39,0.83c0.46,0.02,0.36-0.41,0.5-0.65C106.18,92.73,106.87,93.34,107.38,94.21z" />
		<path class="st5" fill="#EFCFBC"
			d="M117.49,102.86c-0.35,0.86-1.12,1.38-2.31,1.58c-0.91-1.15-0.79-2.99-0.64-4.18    C116.15,100.33,116.76,101.67,117.49,102.86z" />
		<path class="st5" fill="#EFCFBC"
			d="M114.86,99.19c-1.22,0.39-1.38,1.63-1.1,3.21c-1.56-1.69-2.94-3.87-3.65-6.19c1.25,0.58,2.71,4.05,5.35,1.88    c0.94,0.33,1.99,1.04,1.45,2.33C116.11,100.16,115.55,99.58,114.86,99.19z" />
		<path class="st4" fill="#EEB487"
			d="M96.38,92.99c-3.68,0.33-5.28-1.98-6.69-4.51c0.79-0.13,2.61,0.36,3.62-0.43    C94.52,89.33,96.91,90.6,96.38,92.99z" />
		<path class="st3" fill="#EA8E7A"
			d="M67.1,78.35c-2.95,0.8-3.85,1.39-6.18-0.17c-0.65-0.42-1.47-1.07-1.38-1.75c-1.87-0.8-1.97-3.82-3.27-5.34    c2.73-1.73,5.37-3.54,8.85-4.7c0.22-0.27,0.29-0.64,0.16-1.19c4.03-2.7,9.3-1.17,12.33,1.35c-2.47,0.02-5.71,0.94-7.96-0.24    c0.8,2.53,4.11,1.14,6.45,1.14c1.81,0.02,3,0.78,4.66,0.94c-0.09-1.01-1.09-0.84-1.63-1.28c-0.51-1.19-2.12-1.85-2.5-2.65    c3.38-0.64,5.59,0.24,7.25,1.8c-0.72,1.28-1.5,2.2-1.31,3.97c0.21,1.92,1.56,3.16,3.29,3.95l-0.03,0.07    c-0.74,1.67,0.52,4.46,1.52,5.54c-0.31,0.65-0.41,1.65,0,2.49c-0.67,0.07-0.63-0.77-1.4-0.58c-0.04,0.25-0.01,0.45,0.07,0.63    l-0.37,0.77c-0.29,0.14-0.33,0.35-0.27,0.6l-0.48,0.02c0.02-1.94-2.17-3.42-3.52-4.7c-0.04-0.43-0.09-0.86-0.14-1.3    c0.76-0.4,1.89-0.4,2.17-1.43c-0.73-2-2.02-3.31-3.19-4.76c-2.47,1.17-3.91,3.83-6.04,4.81c0.42,0.51,0.08,0.4,0.11,1.01    l-0.14,0.03c-0.54-1.15-1.86-0.17-2.65,0.01C70.33,77.67,68.63,77.94,67.1,78.35z" />
		<path class="st3" fill="#EA8E7A"
			d="M140.69,109.4c-5.63,1.65-10.82-3.53-12.8-7.9c-0.6-1.32-0.78-2.75-2.02-3.43c-0.06,0.07-0.09,0.15-0.13,0.24    l-0.24-0.11c0.3-0.58,0.35-1.26,0.01-1.99c0.79,0.12,2.6,0.88,4.13,0.11c0.66-0.93,1.52-1.69,1.54-3.12    c0.9,0.52,1.69,1.17,2.68,1.59c-0.08,0.16-0.32,0.19-0.24,0.47c1.91,2.89,5.32,4.79,6.51,8.04c-0.3,0.49-1.31-0.87-2.16-0.77    c-2.73,2.34-4.93-2.58-7.62-1.3c2.52,0.61,4.95,4.18,7.88,2.15C140.41,104.04,142.14,106.88,140.69,109.4z" />
		<path class="st4" fill="#EEB487"
			d="M84.05,84.15c-2.3,1.39-5.23,0.2-7.23-0.33c-1.07-1.2-0.98-3.48-0.25-4.67c1.22,0.34,2.71,1.3,4.63,0.64    C82.31,80.96,83.87,82.37,84.05,84.15z" />
		<path class="st1" fill="#E33360"
			d="M38.72,67.84c-5.24-1.15-11.19-3.65-15.38-7.44c-2.03-1.83-5.47-5.5-1.12-7.07c-0.2-0.79-1.52-0.18-1.85-0.81    c1.85-3.12,7.27-4.74,12.91-5.02c5.37-0.25,10.82-0.19,14.63,0.94c2.82,0.83,5.61,1.9,8,3.17c-2.48,0.76-2.71,3.29-4.28,4.77    c-0.04,4.86,3.78,7.83,6.78,10.36C53.42,65.21,44.66,65.79,38.72,67.84z" />
		<path class="st5" fill="#EFCFBC"
			d="M114.81,97.58c-2.76,1.49-3.74-1.86-2.42-3.23C114.26,94.5,113.72,96.56,114.81,97.58z" />
		<path class="st4" fill="#EEB487"
			d="M91.82,87.79c-2.98,0.57-4.9-2.48-5.99-4.72c-0.06,0.02-0.11,0.03-0.16,0.05l0.37-0.77    c0.33,0.79,1.54,1.05,2.23,1.46c0.86-0.59-0.42-1.75-0.33-2.89c1.06,0.32,2.58,1.47,4.29,1.55c2.45-0.8,0.88-4.79,0.11-6.6    c1.99,0.57,3.23-0.81,5.16-1.05c-0.11,1.73,1.36,10.56,3.85,10.42c1.05-0.06,1.23-1.29,1.35-2.36c1.3,0.25,0.67,1.94,0.65,3    c-0.04,1.14,0.09,2.3,0.07,3.22c-1.91-0.01-2.3-1.96-3.94-2.33c-0.33-1.42,0.1-2.81-0.59-3.74c-0.48-0.04-0.49,0.3-0.5,0.65    c-1.21-1.81-1.8-4.49-2.47-7.35c-1.09,4.15,3.02,7.98,2.64,11.29c-1.47-0.11-2.23-2.5-3.49-3.42c-0.43,0.9-0.62-0.14-1.57,0.33    c0.09,0.41,0.39,1.46,0.1,2.18C93.01,87.11,92.43,87.67,91.82,87.79z" />
		<path class="st5" fill="#EFCFBC"
			d="M118.57,98.33c-0.5,0.08-0.51-0.46-0.8-0.64c-0.29,0.08-0.36,0.34-0.53,0.5c-1.14-0.85-2.4-1.51-2.61-3.51    c2.54-0.06,5.09,1.72,4.52,3.58C118.96,98.28,118.76,98.3,118.57,98.33z" />
		<path class="st5" fill="#EFCFBC"
			d="M111.19,95.37c-0.51-0.08-0.91-0.3-1.64-0.09c-0.97-1.76-2.67-2.6-3.97-3.95c-0.24,0.03-0.56,0-0.56,0.21    c-0.35-0.29,0-0.52-0.26-0.99c1.88-0.06,5.2,0.77,6.45-1.19c3.36,1.06,8.31,0.27,8.05-4.01c-0.1-0.28-0.13-0.63-0.51-0.54    c0.43-1,1.12-1.82,0.94-3.33c2.76-1.45,3.63-5.93,3.42-8.46c0.53-0.07,0.61,0.44,0.94,0.62c-0.02,0.33-0.79,0.07-0.67,0.52    c2.29,1.6,5.12,5.49,4.01,9.21c-0.61,0.35-1.38,0.57-1.93,0.96c-0.06,0.67,0.75,0.25,0.82,0.78c-0.84,2.08-4.54,1.64-5.16-0.27    c0.86-0.81,2.99-1.63,2.79-3.71c-1,0.95-1.68,2.77-3.19,2.88c-0.97,1.21,0.12,2.19,0.92,2.81c-0.41,1.21-2.27,2.31-2.63,3.98    c0.3,1.02,1.99,0.75,2.99,0.38c0.29,0.48,0.28,1.31,0.38,2.02c-1.08,0.76-3.3,0.62-3.41,2.16c-0.96-1.08-3.49-1.89-4.99-1.18    c-0.39-0.24-0.76-0.47-1.24-0.6C111.85,93.89,111.15,94.34,111.19,95.37z" />
		<path class="st5" fill="#EFCFBC"
			d="M122.5,99.33c-1.39-0.14-2.8-2.09-2.67-4.09c0.91-1.03,3.52-0.71,3.36-2.59    C125.1,93.97,125.94,99.69,122.5,99.33z" />
		<path class="st2" fill="#E66A6D"
			d="M146.7,106.79c-1.98-0.49-2.76-2.96-4.76-3.1l-0.76,0.52c-0.16-0.65-0.29-1.28-0.58-1.84    c-1.47-2.99-4.16-4.6-5.96-7.09c0.95-0.02,3.05,0.81,4.18,0.55c2.73,3.34,7.18,8.38,12.63,5.12c2.21,1.95,4.69,4.37,6.4,7.04    c0.89,1.39,1.54,3.14,1.86,4.77c-1.74-1.12-3.18-2.57-4.82-3.7c-1.55-1.06-3.74-2.15-5.85-2.4    C148.27,106.57,147.46,106.98,146.7,106.79z" />
		<path class="st4" fill="#EEB487"
			d="M80.51,78.98c-1.3,1.09-2.71-0.96-4.26-0.09c-0.75-0.38-1.11-1.46-0.72-2.42c0.75-0.59,1.66-1.13,2.55-2.05    c0.46-0.47,1.22-1.72,1.87-1.68c1.19,0.07,1.64,2.64,2.6,3.51c-0.36,0.37-0.92,0.58-1.69,0.64    C80.23,77.17,80.39,78.09,80.51,78.98z" />
		<path class="st5" fill="#EFCFBC"
			d="M106.27,89.78c0.16-0.48,0.45-0.99,0.94-0.85c-0.49-0.51,0.41,0.14,0.38-0.47c-0.09-0.22-0.17,0.07-0.43,0.03    c0.21-0.53,0.3-1.15,0.54-1.67c-1.27,0.84-1.6,2.42-3.33,2.88c-0.21-1.92-0.42-4.37-0.14-6.29c1.89-0.25,1.96-1.95,2.56-3.24    c0.67,0.3,1.29-0.42,1.82-0.65c-0.18,1.69-0.77,3.93,0.33,5.39c-0.23,1-1.41,1.51-1.17,2.48c0.28,1.11,2.12,0.97,2.77,1.15    C110.05,89.74,107.73,90.14,106.27,89.78z" />
		<path class="st1" fill="#E33360"
			d="M164.88,111.72c-1.19-0.01-4.13-0.55-4.66-0.92c-0.67-0.48-1.11-2.28-1.86-3.45    c-1.72-2.66-4.47-5.15-6.29-7.35c0.95-0.68,0.57-2.43,0.9-3.62c4.5,1.75,13.53,2.32,17.74-1.34c0.06-0.64,0.57-0.97,1.29-1.17    l-0.62,1.83c0.21,1.07,1.44,1.5,2.2,2.54c1.52,2.08,2.12,5.3,2.19,7.52c-0.45,0.38-0.38,1.18-0.85,1.56    c-3.35,0.47-6.93,0.39-9.23,0.06c1.7,1.79,6.21,0.89,8.78,1.03C172.67,110.46,169.06,111.79,164.88,111.72z" />
		<path class="st4" fill="#EEB487"
			d="M92.25,81.44c-3.7,0.22-5.39-3.49-6.4-7.18l0.03-0.07c1.67,0.77,3.69,1.15,5.4,1.35    C91.88,77.14,93.64,79.83,92.25,81.44z" />
		<path class="st5" fill="#EFCFBC"
			d="M128.24,95.73c-1.17,0.43-2.57-0.29-2.82-1.57C126.99,93.89,127.13,95.43,128.24,95.73z" />
		<path class="st5" fill="#EFCFBC"
			d="M101.52,84.17c-1.07-0.27-1.36-1.5-1.77-2.58c0.91-1.19,1.73-1.9,2.1-3.33    C102.61,80.39,102.19,82.73,101.52,84.17z" />
		<path class="st6" fill="#F1E4C6"
			d="M112.02,88.66c0.28-1.86,1.82-2.68,2.8-3.69c0.21,0.39,0.5,0.68,0.83,0.93c1.29,0,1.73-0.78,2.7-0.75    C119.23,88.18,114.54,89.48,112.02,88.66z" />
		<path class="st5" fill="#EFCFBC"
			d="M126.07,93.49c-0.39-0.3-0.84,0.1-1.3,0.15c-0.47-1.06-1.13-1.87-1.77-2.72c2.02-1.33,3.09-3.41,3.87-5.74    c2.2,1.5,4.04,4.97,3.31,8.27C129.23,92.59,125.45,88.94,126.07,93.49z" />
		<path class="st6" fill="#F1E4C6"
			d="M108.95,87.41c-0.21-1.16,0.53-1.59,0.89-2.3c2.87-0.94,3.73-3.44,4.75-5.84c0.1,1.17,0.11,3.41,0.14,4.97    C112.79,84.71,112.1,87.94,108.95,87.41z" />
		<path class="st5" fill="#EFCFBC"
			d="M129.88,94.67c-1.07,1.44-2.89-0.66-3.06-2.44C128.24,92.54,129.1,93.55,129.88,94.67z" />
		<path class="st2" fill="#E66A6D"
			d="M61.25,67.14c-2.15-0.45-3.96-2.09-5.6-3.9c-1.38-1.53-3.02-2.99-3.24-5.2c-0.22-2.18,1.83-4.26,3.47-5.53    c5,1.87,9.86,3.92,14.52,6.22c-1.11,1.12-0.5,3.05,0.6,3.89c-3,0.5-4.86,0.7-6.36,2.07c-0.37,0.32-0.47,0.94-0.88,1.27    C63.01,66.56,61.97,66.51,61.25,67.14z" />
		<path class="st5" fill="#EFCFBC"
			d="M120.03,90.68c0.32-1.45,1.63-2.13,2.25-3.35c1.16-0.16,2.08,0.24,2.89-0.33    C124.46,88.43,122.84,90.87,120.03,90.68z" />
		<path class="st2" fill="#E66A6D"
			d="M150.19,100.37c-1.98,1.66-4.75,0.29-6.52-0.71C145.57,99.71,149.28,97.6,150.19,100.37z" />
		<path class="st5" fill="#EFCFBC"
			d="M106.13,79.68c-0.77,0.98-1,3.56-2.63,2.65c-0.89-2.29-0.22-3.55-1.04-5.15c1.29-2.22,1.09-6.33,3.4-7.3    C106.78,72.56,104.85,76.41,106.13,79.68z" />
		<path class="st2" fill="#E66A6D"
			d="M145.03,98.76c-2.24,0.24-3.44-1.46-4.84-2.51c4.19-0.4,7.17-3.82,5.06-8.22c2.49,0.9,5.64,4.65,6.61,7.75    c0.4,1.24,0.49,2.91-0.45,3.72c-0.18,0.04-0.49-0.54-0.59-0.08c-0.8-0.77-1.46-1.38-2.52-1.46    C147.11,97.84,146.12,98.65,145.03,98.76z" />
		<path class="st5" fill="#EFCFBC"
			d="M99.6,80.29c-0.23,0.07-0.28-0.11-0.46-0.1c-0.43-2.49-1.81-6.14-0.35-8.03c0.55,0.43,0.54,1.54,1.24,1.77    c1.46-0.38,1.73-1.69,3.12-2.13C102.72,75.23,101.15,77.76,99.6,80.29z" />
		<path class="st3" fill="#EA8E7A"
			d="M144.95,93.06c-3.51,3.61-10.69,1.76-13.59-0.78c-0.58-3.84-1.71-6.1-4.01-7.89    c0.62-0.65,1.55-1.76,1.31-2.65c2.46-0.19,4.75,1.89,7.98,1.71c1.99,2.94,5.28,5.05,4.89,10.43c2.1-3.75-2.2-8.34-3.36-10.02    C141.36,84.47,146.15,87.86,144.95,93.06z" />
		<path class="st6" fill="#F1E4C6"
			d="M109.89,84.23c-1.36-0.87-0.61-2.92-0.38-4.51c0.13-0.92,0.05-2.08,0.26-2.81c0.51-1.83,2.7-3.84,2.49-6.31    c1.16,1.08,1.96,2.62,2.82,4.08c0.49,0.18,0.53-0.61,0.71-0.23c0.04,1.56-0.08,3-0.86,3.91c-0.29-1.29,0.13-2.96-0.47-4.04    c-1.26,0.94-0.52,2.77-0.7,4.03C113.38,80.87,112.06,82.87,109.89,84.23z" />
		<path class="st5" fill="#EFCFBC"
			d="M92.84,75.2c-2.68-0.34-6.69-1.66-8.39-2.84c-0.94-1.47-1.45-3.77-0.3-5.1c1.85-0.99,4.97-0.82,6.5,0.42    c0.31,1.82,1.04,3.11,2.46,3.52c0.52,1.19,1.26,2.08,1.71,3.32C94.56,75.12,93.85,75.32,92.84,75.2z" />
		<path class="st6" fill="#F1E4C6"
			d="M107.41,79.37c-0.91-0.03-1.04-1.67-0.88-2.53c0.85-0.03,0.86,1.02,1.86,0.81    C108.23,78.37,107.88,78.92,107.41,79.37z" />
		<path class="st6" fill="#F1E4C6"
			d="M115.7,85.02c-0.18-0.99-0.33-1.79-0.01-2.65c0.95,0.25,2.3,0.07,3.02-0.49    C119.04,83.45,117.76,84.9,115.7,85.02z" />
		<path class="st6" fill="#F1E4C6"
			d="M96.12,74.38c-0.63-0.35-0.51-1.19-0.94-1.79c-0.35-0.49-0.83-0.43-1-1.06c-0.34-1.28,0.66-2.25,0.75-3.61    c2.52-0.93,2.61-3.8,4.37-5.35c0.6,0.71-0.15,1.33-0.39,1.81C98.19,67.79,99.07,73.17,96.12,74.38z" />
		<path class="st3" fill="#EA8E7A"
			d="M73.57,63.37c-1.38-0.38-2.59-1.85-2.9-3.48c1.77-1.11,4.5-2.83,7.02-2.72c2.08,0.08,2.4,2.2,4.01,2.9    c0.36-1.5-1.36-1.83-1.56-3.18c2.75-0.83,4.43,0.88,6.1,1.92c1.34,2.63,3.69,4.69,4.14,7.88c-1.79-0.62-3.29-1.39-5.51-0.68    c-1.53-1-2.39-2.28-4.26-2.58c-1.47-0.22-3.11,0.4-4.68,0.26c-0.37-0.04-0.8-0.41-1.22-0.46C74.27,63.18,73.92,63.46,73.57,63.37z    " />
		<path class="st6" fill="#F1E4C6"
			d="M116.19,81.73c-1.86-1.43,0.87-3.31,0.97-5.68c0.04-0.98-0.51-2.06-0.49-2.87c0.06-1.84,1.81-3.86,1.65-6.07    C123.26,70.04,123.97,81.39,116.19,81.73z" />
		<path class="st6" fill="#F1E4C6"
			d="M108.29,76.78c-0.13,0.05-0.14-0.04-0.17-0.13c-1.87-2.28-1.24-6.47-1.03-9.99c0.15-2.5,0.12-5.17,1.8-6.07    c1.31,0.22,1.91,1.33,2.62,2.33c-0.52,1.67,0.32,3.65,0.33,5.4c0,0.4-0.26,0.36-0.34,0.77c-0.22,1,0.01,2.05-0.25,2.98    C110.87,73.37,109.39,76.08,108.29,76.78z" />
		<path class="st6" fill="#F1E4C6"
			d="M93.67,69.68c-0.29,0.12-1.04-0.11-0.85,0.39c-2.48-1.4-1.91-9.06,0.42-10.31    C92.6,62.66,94.87,67.18,93.67,69.68z" />
		<path class="st1" fill="#E33360"
			d="M171.52,93.2c-4.33,4.67-12.5,4.04-18.95,2.35c-0.58-1.44-1.2-2.95-2.1-4.16c-1.51-2.06-3.46-4.1-5.92-4.3    c-1.53-2-3.49-3.46-5.94-4.3c0.13-1.81-1.11-2.8-1.42-3.5c1.03-0.13,0.26,0.16,0.82,0.8c3.6,0.73,6.78,4.16,11.54,3.35    c2.63-0.46,4.75-2.08,6.48-3.69c2.2,0.37,5.03,0.83,7.77-0.02c4.28,2.01,7.94,4.79,11.08,8.24    C173.66,89.76,172.96,91.66,171.52,93.2z" />
		<path class="st2" fill="#E66A6D"
			d="M69.5,57.38c-0.88-0.37-1.77-0.96-2.96-1.41c-2.66-1.07-6.46-2.83-8.95-3.81c5.18-1.07,10.33,2.72,13.69,5.46    c-0.12-0.02-0.12,0.06-0.13,0.16c0.01,0.01,0.03,0.01,0.04,0.02C70.94,57.74,69.9,57.54,69.5,57.38z" />
		<path class="st1" fill="#E33360"
			d="M130.01,80.57c-0.5-0.12-0.06,0.48-0.55,0.36c-1.91-1.27-1.64-3.9-3.27-5.34c0.62-0.17,1.39,0.88,2.3,0.89    c0.3,0.25-0.04,0.27,0.09,0.73c2.06,1.76,3.67,4.11,6.83,4.49c0.02-1.09-0.87-1-1.61-1.13c-1.15-0.99-2.71-1.44-3.43-2.97    c2.31,1.78,6.74,0.89,7.45,4.7C134.94,83.37,132.06,81.63,130.01,80.57z" />
		<path class="st3" fill="#EA8E7A"
			d="M90.57,63.29c-0.13,0.01-0.29,0.03-0.44,0.05c-1.48-2.16-2.47-4.94-4.67-6.21c0.19-0.26,0.08-1.09-0.16-1.3    c-1.09-1.78-2.58-3.16-4.23-4.79c-1.41-1.41-3.55-2.38-4.15-4.07c-0.8-2.26-0.15-5.33,0.77-7.28c0.85,0.24,1.35,1.16,1.97,1.82    c0.61,0.65,1.45,1.28,1.84,1.98c0.66,1.17,0.93,2.53,1.47,3.65c0.52,1.11,1.12,2.11,1.82,3.16c1.34,1.95,2.49,4.03,3.93,5.99    c0.84,1.16,1.86,2.36,2.54,4.11C91.08,61.4,90.67,62.22,90.57,63.29z" />
		<path class="st1" fill="#E33360"
			d="M60.24,50.97c-3.76,0.89-5.83-2.55-7.21-5.18c-0.61-1.16-1.23-2.28-1.72-3.46c-0.54-1.26-0.75-2.67-1.34-3.96    c-1.51-3.18-3.74-5.37-4.11-8.77c1.27-0.35,2.4,0.35,3.56,0.32c0.39-0.01,0.84-0.37,1.29-0.29c0.8,0.13,2.24,1.51,3.05,2.27    c1.93,1.81,4.84,3.63,5.98,5.91c0.22,0.45-0.09,1.24,0.55,1.11C60.08,42.61,58.7,47.55,60.24,50.97z" />
		<path class="st2" fill="#E66A6D"
			d="M72.91,57.72c-3.16-2.99-6.85-5.3-11.47-6.44c-1.61-1.21-0.98-3.82-0.82-5.92c0.19-2.79-0.02-6.04,0.75-7.43    c0.5-0.89,1.9-1.4,2.84-2.1c1.21-0.89,1.93-1.93,3.28-2c2.57-0.1,4.29,3.43,6.5,4.09c1.41-0.19,2.62-0.11,3.43,0.48    c-1.12,1.59-2.03,5.56-1.83,6.96c0.47,3.68,3.08,4.11,5.45,6.56c0.51,0.53,0.79,1.17,1.22,1.62c0.96,1.02,2.03,1.48,2.56,3.09    c-0.89-0.23-1.78-0.98-2.9-0.99c-0.99-0.01-1.8,0.66-2.84,0.77c-0.4,0.04-0.81-0.29-1.22-0.3C75.98,56.09,74.25,57.1,72.91,57.72z     M69.7,50.31c-0.03-0.26-0.09-0.46-0.21-0.57c-2.41-1.66-4.38-3.87-6.43-6C64.18,46.67,67.01,48.83,69.7,50.31z" />
		<path class="st6" fill="#F1E4C6"
			d="M106.16,67.34c-0.76,2.74-3.65,3.77-5.84,5.38c-1.81-2.77-0.99-7.48,0.05-9.69c1.91-0.15,1.82-1.89,2.76-2.82    c2.21-0.69,2.51,1.06,3.58,1.79C106.24,63.57,106.29,65.73,106.16,67.34z" />
		<path class="st6" fill="#F1E4C6"
			d="M113.83,61.47c4.09,1.33,4.12,8.84,1.81,11.66c-2.83-1.49-4-6.92-3.02-10.8    C113.09,62.1,113.41,61.73,113.83,61.47z" />
		<path class="st6" fill="#F1E4C6"
			d="M98.43,61.35c-0.85,2.04-1.33,4.39-3.49,5.39c-1.26-3.34-0.97-7.76,0.27-10.29c1.1-0.43,2.25-0.52,2.71,0.56    C97.75,57.87,97.52,60.24,98.43,61.35z" />
		<path class="st1" fill="#E33360"
			d="M137.79,78.19c-3.34,0.69-6.2-0.67-8.18-2.28c-3.75-1.41-6.98-3.47-8.53-7.67c3.1,0.79,6.14,1.67,8.98,2.78    c1.25,1.35,2.49,2.71,3.76,4.55c-2.87,0-5.69-2.87-7.76-4.97c-0.35,1.24,2.19,2.38,2.31,3.55c2.06,1.28,4.68,2.74,6.98,3.14    c-0.52-2.83-3.33-5.11-4.63-6.95C135.7,69.65,136.3,74.5,137.79,78.19z" />
		<path class="st1" fill="#E33360"
			d="M145.79,82.54c-2.71-0.64-5.12-3.01-7.73-3.37c0.25-0.27,0.58-0.51,0.62-0.94c-0.95-3.68-2.17-6.26-4.66-8.55    c2.7-0.62,3.79-2.52,5.08-4.26c8.71-0.91,12.39,5.37,17.05,9.03c0.01,0.84-0.19,0.71-0.59,1.23c0.57,1.37-0.06,2.47-0.16,3.69    C152.93,81.39,149.28,83.37,145.79,82.54z" />
		<path class="st1" fill="#E33360"
			d="M173.07,92.58c0.42-1.8,2.98-2.86,2.67-4.73c-0.22-1.33-2.67-2.73-3.82-3.8c-2.01-1.89-4.31-3.79-6.98-4.62    c2.38-2.23,5.78-3.28,8.54-4.66c0.34-0.17,0.82-0.67,1.24-0.72c1.14-0.19,3.5,1.14,4.47,1.83c2.16,1.53,3.18,3.18,4.25,6.25    c0.67,1.94,0.58,2.92-0.84,4.2c0.29,0.52,0.77,0.8,1.04,1.33c-0.38,1.55-2.23,2.05-3.64,2.77    C178.42,91.26,175.98,92.91,173.07,92.58z" />
		<path class="st6" fill="#F1E4C6"
			d="M102.43,59.27c-0.52,0.58-1.13,3.94-2.75,2.81c-1.45-1-1.28-4.27-0.47-5.36c0.33-0.46,1.88-1.56,2.87-1.81    c0.86-0.2,2.01,0.12,3.07-0.07c1.43-0.23,2.75-1.07,3.4-1.12c3.31-0.26,5.63,2.99,5.92,6.79c-1.11-0.25-1.49,0.69-2.5,1.17    c-0.62-1.23-2.24-2.43-3.61-3.25c-1.1,0.38-1.92,0.4-2.81,1.06C104.86,58.72,103.28,59.51,102.43,59.27z" />
		<path class="st1" fill="#E33360"
			d="M69.49,49.75c0.12,0.11,0.18,0.31,0.21,0.57c-2.69-1.48-5.53-3.64-6.64-6.57    C65.11,45.87,67.09,48.08,69.49,49.75z" />
		<path class="st1" fill="#E33360"
			d="M94.81,47.98c-1.19,2.72,0.98,8.61-1.99,10.65c-0.68-1.66-0.92-4.44-1.16-6.17    c-0.78,1.82,0.34,4.29,0.25,7.15c-3.34-5.87-9.75-11.72-10.43-20.35c-0.2-2.59,1.17-4.92,3.41-5.97c0.06-0.04,0.26-0.17,0.27-0.18    c2.12-0.44,4.7-1.38,6.3-2.64c0.74-0.57,1.66-2.12,2.53-2.2c0.72-0.08,2.1,1.02,2.54,1.62c2.17,2.9,3.47,6.66,3.83,11.42    c-1.71,2.23-1.94,6.28-0.65,9.74l-0.13,0.04c-1.2,0.23-2.37,1.53-3.05,2.7c-0.35,0.59-0.25,1.5-0.97,1.72    C94.7,53.66,95.39,50.06,94.81,47.98z M85.25,41.45c0.09,3.21,1.31,6.43,3.52,7.52c-1.18-1.88-2.92-4.47-2.72-7.02    c1.19-0.4,1.58,0.2,2.65,0.13c3.69-0.24,3.87-3.61,6.12-5.42c0.52-0.4,1.17-0.3,1.48-1.04c-4.07,0.1-3.68,5.62-7.98,5.78    C87.25,41.42,86.57,40.6,85.25,41.45z" />
		<path class="st1" fill="#E33360"
			d="M137.27,66.22c-4.4,6.09-14.28,1.94-19.19,0.18c-0.15-1.03-0.52-1.79-0.88-2.53    c4.05,1.19,10.87-2.65,14.49-2.87c2.74-0.17,4.62,1.53,6.64,2.9c-1.25,0.5-2.84,0.74-3.79,1.47c0.8,0.18,2.19,0.08,3.01-0.64    c0.02,0.71-1.59,1.27-2.28,1.87c-0.39,0.05-0.78,0.09-1.15,0.15c-1.92,1.49-5.1,1.66-7.77,1.34    C129.6,70.33,134.05,67.38,137.27,66.22z" />
		<path class="st1" fill="#E33360"
			d="M98.28,56.37c-0.25-0.63-0.86-0.79-1.43-1.01c0.46-1.78,1.85-2.84,2.72-4.27l0.13-0.04    c0.06,0.2,0.14,0.4,0.23,0.59c-0.75,0.02,1.07,1.32,1.04,2.51C100.34,55.11,99.12,55.58,98.28,56.37z" />
		<path class="st1" fill="#E33360"
			d="M163.42,79.02c-2.02,0.7-5,0.35-7.07-0.2c0.03-0.83,0.12-1.58,0.33-2.23c3.89,0.02,7.91-0.48,10.35-3.12    c-1.67-0.14-3.36,1.5-5.64,1.99c-1.46,0.3-2.91,0.2-4.52,0.23c0.02-0.56,0.36-0.86,0.27-1.5c-3.8-2.78-6.68-6.73-11.13-8.68    c10.39-4.33,24.13,0.02,27.81,8.21c-3.17,0.59-5.73,2.8-8.18,4.17c-0.67,0.39-1.46,0.61-2.07,1.14    C163.54,79.04,163.45,79.02,163.42,79.02z" />
		<path class="st1" fill="#E33360"
			d="M117.01,63.43c-0.71-0.86-1.1-2.15-2.2-2.53c1.01-1.3,0.17-2.3-0.18-4.08c2.38-0.07,4.48-1.3,5.86-2.59    c-2.19-0.45-3.74,2.41-6.69,1.8c-0.22-0.62-0.65-0.94-1.03-1.35c0.96-3.06,2.28-5.82,4.51-7.87c-1.27,0.08-2.32,1.32-2.97,2.25    c-0.95,1.37-1.61,3.3-2.06,4.94c-0.75-0.05-1.12-0.57-1.58-0.99c0.83-4.51,2.31-8.51,6.42-10.43c0.55-0.25,0.41,0.39,0.78,0.36    c1.14-1.52,2.69-0.13,3.59,0.6c-0.24,0.32-0.62,0.55-0.76,0.97c1.79-0.53,5.1-1.07,6.73-0.04c1.26,0.94,0.94,3.1,1.08,5.44    c0.04,0.89,0.29,1.75,0.25,2.18c-0.5,4.2-6.4,4.54-9.81,6.43c4.77-0.43,12.09-2.29,10.46-8.4c3.5-0.64,6.43,1.12,5.82,4.59    c-1.43-0.61-2.84-2.16-4.96-2.35c0.88,1.53,2.83,1.72,4,2.91C133.17,61.75,123.77,62.61,117.01,63.43z" />
		<path class="st1" fill="#E33360"
			d="M88.76,48.97c-2.2-1.09-3.42-4.3-3.52-7.52c1.32-0.85,2.01-0.03,3.08-0.05c4.3-0.16,3.91-5.68,7.98-5.78    c-0.32,0.74-0.97,0.64-1.48,1.04c-2.25,1.8-2.44,5.18-6.12,5.42c-1.07,0.07-1.46-0.54-2.65-0.13    C85.84,44.5,87.58,47.1,88.76,48.97z" />
		<path class="st1" fill="#E33360"
			d="M60.42,37.45c-2.41-3.77-6.18-5.81-9.23-8.75c-1.76,0.53-2.58-0.02-4.26,0.04c-0.24-2.59,0.93-6.5,2.59-8.07    c1.45-1.37,2.67-0.99,4.5-0.38c0.44-0.26,0.04-1.19,0.26-1.64c6.1-0.36,12.11,0.8,15.95,4.74c2.17,2.23,3.17,5.05,5.18,7.91    c2.29,3.31,4.64,5.6,5.56,9.92c-2.93-1.48-1.56-5.01-6.64-4.07c-2.29-1.96-3.3-2.92-6.07-4.27c-2.42-0.18-3.07,1.31-4.29,2.25    C62.79,36.05,61.32,36.36,60.42,37.45z" />
		<path class="st1" fill="#E33360"
			d="M107.72,53.07c-1.52,0.47-4.03,0.97-5.75,0.97c-2.03-2.96-3.92-10.96,0.21-13.38    c-0.29-0.42-0.7-0.1-1.19-0.01c-0.34-5.24-2.45-11.32-7.13-13.4c-1.31,0.54-1.79,1.73-2.94,2.39c-0.85-4.37,2.58-6.45,5.32-8.39    c5.11,2.99,8.86,10.21,7.53,18.05c0.15,0.3,0.55,0.3,0.8,0.5c0.61-0.3-0.21-0.93,0.29-1.22c2.51-1.31,6.09-2.08,8.26,0.36    c-1.02,4.94-3.7,8.56-4.74,13.47C107.95,52.47,107.81,52.75,107.72,53.07z M103.57,51.37c0.37-0.56-0.28-0.59-0.41-0.98    c-0.53-1.74,0.8-4.43-0.3-6.42c0.05,2.05-1.57,6.58,0.68,8.29c1.62-0.3,2.62-1.76,2.43-3.08    C104.9,49.62,104.59,51.33,103.57,51.37z" />
		<path class="st3" fill="#EA8E7A"
			d="M103.16,50.38c0.13,0.39,0.78,0.42,0.41,0.98c1.03-0.04,1.33-1.75,2.39-2.2c0.19,1.32-0.81,2.78-2.43,3.08    c-2.25-1.71-0.63-6.24-0.68-8.29C103.95,45.95,102.63,48.64,103.16,50.38z" />
		<path class="st1" fill="#E33360"
			d="M110.03,52.66c-0.31,0.49-0.95,0.01-1.45,0.17c1.57-4.94,4.1-9.12,5.23-14.41c0.43,0.58,1.57,0.21,2.38,0.32    c0.27,1.42-0.36,2.17-0.34,3.4C112.46,44.43,110.37,48.41,110.03,52.66z" />
		<path class="st1" fill="#E33360"
			d="M139.48,63.61c-0.24-0.05-0.04-0.14,0.11-0.17c-2.2-1.25-4.22-2.72-6.97-3.29c0.85-1.56,2.31-2.63,2.53-4.7    c2.51-0.84,0.07-4.74-0.97-5.77c0.47,0.03,0.47-0.05,0.52-0.5c2.23-0.65,4.04-1.12,6.37-0.74c0.36,0.07,0.21,0.01,0.18,0.28    c2.49-0.56,5.38,0.39,8.01,0.67c0.18,4.57-2.96,6.51-5.09,9.26c1.4,0.08,2.8-2.4,4.17-3.28C147.77,59.94,143.5,62.24,139.48,63.61    z" />
		<path class="st1" fill="#E33360"
			d="M144.63,65.07c-1.42,0.1-3-0.98-4.45-0.82c5.6-1.84,9.66-5.52,9.21-11.32c0.7-0.67,0.67-1.44,0.88-2.45    c3.85-0.31,7.04,0,10.21,0.72c3.54,0.8,7.57,1.27,10.34,3.04c-2.78-0.02-6.02,0.64-9.09,0.18c-1.22-0.18-2.34-1.1-3.56-0.47    c3.42,1.83,8.84,1.12,13.64,1.2c-0.81,2.17-2.38,3.85-4.35,5.5c-1.48,1.24-3.22,3.17-5.34,3.41c-0.03,0-0.1,0.02-0.15,0    c-3.22-0.62-6.28-1.83-10.69-1.09c-1.14,0.19-2.42,0.46-3.56,0.86C146.69,64.18,145.62,64.99,144.63,65.07z" />
		<path class="st1" fill="#E33360"
			d="M170.87,68.62c-2.01-2-4.82-2.98-7.27-4.44c4.16-2.09,7.29-5,9.24-8.84c-0.02-0.72,0.03-0.55-0.26-1.01    c8.3-2.51,18.29-6.08,26.16-3.34c-0.05,0.8-0.93,0.93-0.97,1.74c-0.04,0.65,0.81,0.2,0.83,0.78c-0.96,2.62-2.89,4.9-5.37,6.78    C187.79,64.43,180.73,68.2,170.87,68.62z" />
		<path class="st1" fill="#E33360"
			d="M129.33,49.53c0.31-1.58,1.97-2.11,2.52-3.51c3.57-3.72,7.64-7.7,11.84-10.47c1.14-0.06,2.52-0.78,3.12-0.95    c0.14-0.04,3.43-1.1,4.71-1.13c2.83-0.07,7.06,0.79,9.41,1.4c0.03,4.52-2.68,8.91-5.87,11.4c-1.45,1.12-3.53,1.88-5.91,2.15    c2.75-2.35,6.42-4.64,6.96-8.29c-1.05,0.51-1.09,1.74-1.77,2.55c-0.71,0.88-1.88,2-2.88,2.98c-0.92,0.9-2.45,2.21-3.53,2.46    c-1.5,0.36-3.47-0.35-5.33-0.4c-1.87-0.07-3.43-0.37-5.72,0.07c-1.18,0.23-2.83,0.6-3.46,1.73    C132.38,49.04,130.4,49.5,129.33,49.53z" />
		<path class="st1" fill="#E33360"
			d="M117.85,41.63c-0.54-0.04-0.6,0.32-1.14,0.28c0.22-1.2,0.96-3.38-0.35-4.22c0.18-2.98,1.32-5.89,1.94-8.59    c-0.99,0.42-1.15,1.89-1.54,3.12c-0.38,1.14-0.94,2.49-1.2,3.66c-0.15,0.64,0.24,1.6-0.5,1.97c-0.3-10.31,6.13-16.44,13.06-21.48    c0.7,1.54,1.9,3.28,2.52,5.28c1.13,3.71,0.65,7.69,0.37,10.81c-3.51,2.84-6.62,5.97-7.86,10.61c-0.29,0.12-0.97-0.07-1.01,0.26    c-0.95-0.83-1.5-2.2-3.43-1.8c0.83-3.9,2.34-7.26,3.74-10.7c-1.51,1.2-2.06,3.25-2.79,5.02C118.92,37.65,118.17,39.6,117.85,41.63    z" />
		<path class="st1" fill="#E33360"
			d="M105.06,37.68c-0.21-0.21,0.03-1.19-0.05-1.74c0.33,0.01,0.55-0.08,0.71-0.23c0.56-3.41,2.61-5.65,5.15-7.49    c2.38,1.45,3.57,6.73,2.62,9.95C111.59,36.28,107.76,35.92,105.06,37.68z" />
		<path class="st1" fill="#E33360"
			d="M129.49,47.16c-0.08-2.09-1.92-4.41-5.32-4.07c1.25-4.46,3.93-7.29,7.27-9.5c2.57-2.8,8.98-6.97,14.33-5.48    c-3.43,4.41-11.06,5.52-14.54,9.9c1.72-0.69,3.4-1.89,5.23-2.95c2.48-1.45,5.46-2.21,7.3-4.09c-1.24,4.54-5.22,7.37-8.74,10.71    C133.1,43.51,131.33,45.43,129.49,47.16z" />
		<path class="st1" fill="#E33360"
			d="M150.19,49.75c0.54-0.94,1.99-0.87,3.07-1.39c1.21-0.57,2.17-1.49,2.96-2.24c0.37-0.16,0.32,0.24,0.6,0.21    c3.34-1.3,5.59-3.48,8.02-5.49c-2.52,0.86-4.77,3.06-7.27,4.38c1.35-2.15,4.85-6.57,4.37-10.34c-0.08-0.71-0.97-1.1-1.64-1.56    c-0.32,0.19,0.42,0.43,0.65,0.5c-0.32,0.44-0.75-0.35-1.34-0.14c0.01-0.17,0.26-0.15,0.42-0.19c-2.11-0.24-6-0.66-9.35-0.97    c3.52-3.43,14.94-3.61,20.63-1.81c0.12,0.49,0.47,0.72,0.58,1.25c0.57,0.1,1.12,0.27,1.66,0.39c-0.17,6.36-2.82,12.22-7.73,15.43    c-1.57,1.01-4.06,2.41-6.03,2.46c-0.62,0.02-1.51-0.33-2.4-0.45C155.05,49.47,153.22,49.3,150.19,49.75z" />
		<path class="st1" fill="#E33360"
			d="M132.07,31.47c0.54-1.99-0.02-5.72-0.35-8.03c-0.02-0.19,0.29-0.27,0.24-0.47c-0.22-1.1-0.79-1.97-1.06-2.81    c0.02,0.08,0.29-1.33-0.41-1.13c-0.44-0.26,0.36-0.29-0.1-0.72c-0.12-0.48-0.51,0.46-0.47-0.24c0.12-0.1-0.92-2.13-1.35-2.78    c1.35-2.63,3.33-4.3,4.27-6.22c0.61,0.16,0.58-0.84,0.98-0.41c2.44-3.05,7.55-7.16,14.34-7.83c-0.13,0.38-0.11,0.87-0.13,1.33    c-0.01,0.35,0.44,0.11,0.49,0.39c0.75-0.18,1.07-0.73,2.12-0.69c0.02,0.15,0.19,0.09,0.31,0.12c6.11,8.43,0.37,19.84-4.55,25.32    C141.16,25.38,135.88,29.22,132.07,31.47z" />
	</g>
</g>
</svg>