<?xml version="1.0" encoding="utf-8"?><!-- Generator: Adobe Illustrator 24.1.0, SVG Export Plug-In . SVG Version: 6.00 Build 0)  -->
<svg version="1.1" id="Layer_1" xmlns="http://www.w3.org/2000/svg" x="0px" y="0px"
    viewBox="0 0 190.97 176.48" style="enable-background:new 0 0 190.97 176.48;"
    xml:space="preserve">

<g id="XMLID_7_">
	<g id="XMLID_1_">
		<path class="st0" fill="#F48F90" d="M107.68,85.64c0.55,0.93,0.46,2.48-0.83,3.15c-0.31,0.15-0.94-0.1-1.38,0.19c-0.36,0.24-1.68,2.63-3.2,0.9
			c-0.07-1.02,0.08-1.45,0.5-2.23c0.7,0.45,1.74,0.27,2.31-0.07c-0.51-1.2-2.4-0.4-2.82-1.73c0.48-2.12,2.35-3.14,3.71-1.79
			c-0.1,0.7,0.14,1.13,0.36,1.58C106.96,85.88,107.09,85.46,107.68,85.64z" />
        <path class="st0" fill="#F48F90" d="M96.21,99.98c1.32,1.99-0.55,2.27-2.17,3.15c-1,0.57-2.26,1.5-2.77,1.92c-3.27,2.78-6.61,6.07-8.36,10.31
			l-0.71-0.31c1.02-2.2,1.48-4.86,3.16-6.22c-0.04-0.73,0.36-0.87,0.39-1.48C88.66,104.11,91.49,100.79,96.21,99.98z" />
        <path class="st0" fill="#F48F90" d="M81.22,93.26c0.51,4.05-1.5,6.76-0.56,9.34c-1.39,1.18-1.86,3.79-3.41,6.44c0.69-4.36,2.22-10.03,2.48-14.84
			C80.11,93.87,80.92,92.94,81.22,93.26z" />
        <path class="st1" fill="#E66A6D" d="M189.97,83.05c-0.16,0.74,0.74,1.71,0.59,2.58c-0.2,1.25-2.52,3.45-3.47,4.13
			c-5.27,3.82-13.76,4.39-18.92,8.68c-2.59,2.15-4.25,6.13-6.64,8.86c-0.69,0.8-1.93,1.56-2.82,2.29c-3.21,2.6-7.72,5.26-12.18,5.98
			c1.31,2.56,3.09,5.31,4.55,8.53c0.7,1.49,1.4,3.14,2.01,4.89c0.77,2.21,1.47,4.14,1.52,6.95c0.97,2.49,1.15,4.84,1.95,7.98
			c0.34,1.32,1.08,2.85,0.78,3.95c-0.21,0.79-1.26,1.43-1.88,2.43c-0.64,1.03-0.96,2.26-1.55,2.85c-1.25,1.23-3.1,1.82-3.69,4.29
			c-2.99,0.63-6.07-0.66-9.31-0.75c-3.71-0.1-7.22,0.21-10.25-0.87c-1.7-1.41-3.93-2.04-5.91-3.14c-1.34-0.77-2.95-2.88-4.59-2.97
			c-2.15-0.12-5.08,3.26-7.81,3.7c-5.5,0.88-12.1-1.26-19.1-2.32c-3.38,5.21-6.72,9.12-11.78,12.57c-4.49,3.03-8.63,5.5-13.64,8.07
			c-4.98,2.54-10.46,5.13-17,4.7c-2.29-1.09-3.69-2.84-5.35-4.41c-1.7-2.73-2.72-6.27-3.78-9.95c-1.14-3.91-2.55-7.52-3.12-11.98
			c-0.19-1.55-0.9-3.07-1.09-4.57c-0.75-6.34-0.8-13.87,2.72-19.22c-3.43-2.4-7.13-4.82-10.05-7.77c-0.89-0.92-1.25-2.04-1.91-2.77
			c-0.72-0.81-1.78-1.15-2.61-1.92c-2.39-2.17-4-4.16-6.74-5.38c-2.62-1.15-5.56-1.77-8.69-3.73c-1.66-1.03-3.23-2.8-4.76-4.52
			c-2.54-2.84-4.38-4.98-4.87-8.95c0.28-0.87-0.66,0.03-0.53-0.46c1.73-7.66,6.56-12.87,12.34-16.53c2.65-1.68,6.25-2.97,9.23-4.08
			c7.42-2.76,16.36-4.07,25.05-1.64c-4.07-6.57-5.57-14.53-6.66-23.65c-0.37-3.01-0.16-6.05-0.42-9.3
			c-0.59-7.07-3.71-13.84-5.82-20.05c-1.42-4.21-3.76-9.88-0.7-15.47c0.58-0.36,1.09,0.41,1.86,0.45
			c11.04,0.55,20.41,5.5,26.57,12.03c4.87,5.16,9.64,10.53,13.5,15.95c2.9,4.06,4.7,9.12,7.43,12.77
			c5.15-4.27,9.12-9.75,14.65-13.88c2.28-1.69,5-2.9,7.38-4.53c6.89-4.72,14.31-9.27,20.69-14.39c2.3-1.18,10.17-2.11,11.42,2.2
			c2.76-0.93,6.45,1.12,7.33,3.92c0.36,1.17,0.47,3.02,0.7,4.52c1.66,10.89,1.03,22.24-0.64,33.19c-0.99,6.42-2.14,12.52-3.73,18.13
			c-0.08,0.27-0.17,0.57-0.25,0.85c-0.78,2.36-1.77,4.41-2.09,6.13c-0.68,0.49-1.14,1.76-1.71,2.64c-0.99,1.57-1.96,3.39-3.07,5.34
			c-0.51,0.92-1.58,1.91-1.18,2.9c-2.91,1.83-5.65,5.76-8.82,7.99c2.02-0.44,3.44-2.72,4.27-3.05c0.27,0.79-0.58,0.5-0.96,1.4
			c2.59-0.73,5.61-1.85,8.67-2.81c2.94-0.9,6.14-2.34,9.08-1.6c-7.5,1.98-14.7,4.36-21.26,7.57c-0.57,0.98-1.19,0.71-2.09,1.25
			c-0.35,0.24,0.02,0.97-0.89,0.84c0.09-0.24,0.36-0.26,0.46-0.52c-1.45,0.62-2.7,1.51-3.83,2.54c2.03,0.3,2.76,0.11,3.98,0.36
			c0.92,0.2,1.17-0.03,1.73,0.04c1.56,0.25,4.12,1.94,7.57,2.24c0.97,0.08,0.1-0.31,0.8-0.27c0.34,0.19,0.05,0.58,0.55,0.26
			c0.71,0.78,1.77,0.64,2.55,0.94c0.12,0.05,0.41,0.49,0.87,0.69c0.82,0.4,0.94,0.12,2.17,0.89c1.01,0.63,3.81,2.27,4.93,3.2
			c1.46,1.19,2.71,3.89,4.02,4.22c1.47,0.36,4.29-1.08,5.63-1.71c5.11-2.39,9.65-5.45,12.12-10.97c5.9-9.18,19.71-7.86,26.16-16.31
			c-0.5-1.4-0.98-2.84,0.36-3.98c-6.22-12.03-31.75-12.39-44.98-10.98c-0.86-0.29,0.19,0.52-0.46,0.52
			c-2.66-0.28-1.69,0.88-4.34,0.74c0.02-0.14,0.07-0.28,0.11-0.38c0.73-1.83,3.79-1.89,6.02-2.22c3.47-0.5,7.33-0.77,10.48-0.63
			c12.61,0.53,30.8,2.93,34.13,12.91C191.07,82.49,190.14,82.12,189.97,83.05z M156.23,147.51c0.3-1.22-0.7-1.89-0.9-3.21
			c-0.26-1.87-0.63-2.89-0.92-4.36c-0.09-0.48,0.12-1.08,0.03-1.53c-0.17-0.78-0.73-1.31-0.86-2.04c-0.38-1.94-0.35-3.88-0.77-5.49
			c-1.04-2.04-2.18-4.68-2.52-6.71c-2.29-4.06-5.04-7.78-7.8-11.48c-4.24-4.04-11.15-6.95-18.59-8.6
			c-3.68-0.82-8.36-1.48-12.29-1.56c-6.52-0.1-12.55,3.21-16.29,6.35c-1.62,1.38-3,3.43-5.29,3.49c3.08-3.06,6.4-6.04,10.34-8.11
			c4.04-2.13,8.72-3.3,14.45-2.6c1.28-1.21,2.71-2.25,4.28-3.05c1.83-1.84,3.77-3.64,5.76-5.35c1.92-1.66,4.18-3.4,5.78-5.53
			c1.21-1.6,1.82-3.71,2.89-5.54c1.76-2.99,3.91-5.96,5.02-9.68c1.35-4.48,3.21-11.75,2.92-12.47c0.66-1.84,1.19-5.13,1.32-6.53
			c0.16-1.84,0.37-3.31,0.59-4.15c0.52-1.96,0.25-4.5,0.5-7.63c0.36-4.57,0.71-9.55,0.52-14.53c-0.19-4.5-0.63-9.38-1.52-12.33
			c-0.53-1.75-3.53-3.57-5.15-3.03c-1.62,4.09-3.84,8.05-5.9,11.85c-2.04,3.76-4.23,7.71-6.67,10.41c2.75-6.19,6.58-12.06,9-17.38
			c0.25-0.87,0.92-2.09,1.64-4.77c-0.49-2.65-2.81-3.81-6.06-3.36c-2.77,0.39-6.15,2.42-9.12,4.68c-3.42,2.57-7.17,5.17-9.42,6.74
			c-1.06,0.73-2.09,1.18-3.15,1.87c-1.25,0.79-2.35,1.73-3.39,2.2c-1.26,0.86-3.17,1.7-5.25,3.61c0.22-0.28-1.21,0.3-1.26,0.29
			c-0.33,0.21-0.67,0.84-1.12,1.18c-1.31,1.01-3.11,2.08-4.08,3.07c-2.24,2.3-4.6,4.88-7.03,7.47c-4.52,4.86-9.8,10.8-11.61,18.17
			c-0.78,3.17-1.42,6.85-1.44,10.18C72.83,74.82,75,80.41,76.62,84.9c0.54,1.48,1.06,3.23,2.29,4.18c0.46-4.4,4.34-4.25,4.23-9.4
			c-0.91-0.69-1.49,0.2-2.67-0.2c-2.57-3.93,7.82-5.17,7.42-0.87c-0.1,1.01-1.01,1.34-1.27,2.12c-0.35,1.17,0.17,2.51-0.34,5.15
			c3.42-4.42,7.1-8.5,10.97-12.3c-1.67-1.88-0.47-4.12,1.69-3.8c2.39,0.36,3.34,3.72,4.94,4.55c0.88-1.79,1.89-3.44,2.85-5.18
			c0.96-1.77,2.21-3.15,3.17-4.74c0.51-0.85,0.33-2.34,1.68-2.44c0.48,2.26-1.68,3.58-2.87,5.36c-1.83,2.75-2.83,6.38-4.74,9.13
			c-0.17,3.39-4,4.98-4.4,8.03c1.63,0.26,2.76-0.55,2.52-1.57c0.77,0.76,1.32-0.92,2.61-0.78c1.19,0.14,1.92,1.11,2.16,2.42
			c2.62,0.36,2.58,3.26,1.24,4.79c1.5,0.58,2.25,2.32,2.01,3.55c-0.59,2.97-5.55,2.2-7.27,1.09c-0.35-0.46-0.02-1.45-0.3-1.98
			c-2.33-0.22-4.95,0.22-7.38,0.51c-1.08,2.82-4.3,4.88-3.62,7.94c0.76-0.33,2.51-1.28,4.03-1.35c-0.36-1.3,1.02-2.62,1.92-2.61
			c2.81,0.04,5.09,6.03,2.64,7.28c-0.37,0.18-0.82,0.25-1.39,0.2c-0.98-0.08-0.9-0.74-1.97-1.04c-5.78,2.99-10.43,7.47-13.53,14.05
			c2.57,3.53,5.58,6.16,11.3,7.17c7.48,1.31,18.96,0.99,24.39,5.57c-2.15-0.05-3.96-1.34-6.28-1.84c-5.86-1.3-12.74-1.28-18.5-2.43
			c-4.35-0.89-8.91-3.21-10.4-5.32c-0.09-0.14,0.5-0.24,0.43-0.32c-0.13-0.16-1.33,0.04-0.49-0.65c-0.65,0.39-0.69,0.04-1.07-0.54
			c-4.49,2.45-7.86,8.16-7.54,13.94c0.73,4,3.12,6.75,4.93,9.93c6.31,5.09,14,7.91,22.59,8.96c3.79,0.46,7.95,1.24,10.9,0.38
			c2.35-0.66,4.27-3.26,6.42-3.31c2.18-0.06,2.98,1.74,4.43,2.75c1.36,0.94,3.78,2.12,5.42,2.48c4.92,1.11,8.07-1.08,12.07,0.37
			c-2.1,0.78-5.15,0.32-7.27,1.09c1.19,0.2,2.42,0.04,2.61,0.55c1.77-0.79,4.39-0.08,7.28,0.26c2.46,0.29,5.15,0.97,5.66-0.55
			c-1.67-1.46-4.07-1.07-5.97-1.41c0.83-1.99,4.53-0.36,6.01-0.3c-3.02-3.53-7.33-6.96-9.9-10.25c4.08,2.99,7.24,6.69,11.33,9.69
			c1.91-0.47,2.07-2.05,3.22-3.79C155.38,148.55,156.08,148.13,156.23,147.51z M106.85,88.8c1.29-0.67,1.38-2.22,0.83-3.15
			c-0.59-0.18-0.72,0.24-1.35-0.01c-0.22-0.46-0.46-0.89-0.36-1.58c-1.36-1.34-3.22-0.33-3.71,1.79c0.42,1.34,2.31,0.54,2.82,1.73
			c-0.57,0.35-1.61,0.53-2.31,0.07c-0.42,0.78-0.57,1.21-0.5,2.23c1.52,1.73,2.84-0.66,3.2-0.9
			C105.91,88.69,106.54,88.95,106.85,88.8z M101.16,89.52c-0.04-0.94,0.02-1.94,0.94-2.55c-0.8-0.18-0.43-1.25-0.92-1.68
			c-8.36,1.45-15.09,6.23-18.13,13.97c1.71-1.16,3.36-3.57,5.81-3.01C91.88,92.47,95.53,90.56,101.16,89.52z M101.04,79.52
			c-0.88-0.07-0.07-1.42-0.94-1.48c-3.53,2.03-6.23,5.17-8.55,8.79c2.2,0.39,4.85-2.24,6.42-1.99
			C98.96,83.03,100.14,81.44,101.04,79.52z M94.05,103.13c1.62-0.88,3.49-1.16,2.17-3.15c-4.72,0.81-7.55,4.13-10.46,7.37
			c-0.03,0.61-0.43,0.75-0.39,1.48c-1.67,1.35-2.13,4.02-3.16,6.22c-0.35,0.74-0.74,1.43-1.28,2c0.99-6.68,4.65-11.75,8.68-15.12
			c-0.76-0.26-1.02-0.91-1.75-1.22c-3.16,3.95-7.1,9.58-7.29,14.74c-1.31-0.41-0.59,2.74-1.99,3.19c-0.03-6.1,3.92-11.72,5.9-15.89
			c0.92-0.45,1.71-1.95,2.56-3.11c-2.09-4.09-6.15,5.29-6.85,6.34c-0.23,0.31-0.74,1.02-1.02,1.77c-0.74,1.98-1.42,3.89-1.67,4.96
			c-0.9,1.24-0.26,5.49-1.48,6.33c-0.9-0.55,0.09-2.53-0.27-3.49c-0.13-0.19-1.37,0.05-1.03-0.93c-4.47-2.34-11.7-1.88-15.88-4.55
			c-0.79-0.5-1.52-1.29-2.25-1.87c-0.72-0.54-1.81-1.14-1.99-2.2c3.97,3.17,11.6,2.05,15.62,1.06c-2.21,2.37-6.54,1.92-10.3,2.21
			c3.42,2.08,9.45,2.19,13.71,3.66c-2.07-10.48-3.08-22.16-8.31-29.63c-0.48-0.67-0.64-1.53-1.04-2.07
			c-2.62-3.4-7.46-6.35-11.49-8.55c-1.52-0.84-2.95-1.92-4.44-2.56c-3.18-1.34-8.19-1.47-11.88-1.68
			c-8.22-0.47-15.16,2.83-21.05,6.07c-6.21,3.41-11.91,7.14-14.08,15.3c2.41,0.73,5.73-0.34,7.13,1.19c-2.38-0.08-4.62,0-6.75,0.21
			c0.04,3.66,2.19,5.82,4.42,8.13c1.46,1.51,3,3.39,4.4,4.27c0.5,0.31,1.09,0.15,1.67,0.44c1.3,0.62,2.63,1.79,3.9,2.27
			c1.09,0.42,2.36,0.4,3.34,0.87c1.9,0.86,2.95,2.88,5.12,3.21c-0.62,1.04,2.2,1.22,1.6,2.34c4.19,3.49,7.11,7.81,12.65,11.21
			c2.83,1.77,6.17,3.58,9.18,4.38c2.19,0.61,5.31,1.43,7.68,1.47c1.46,0.04,3.23-0.72,4.73-0.87c4.69-0.45,7.56-1.6,10.5-3.52
			c0.78-0.5,1.69-0.92,2.32-1.4c1.84-1.43,2.71-3.84,4.92-4.89c-1.75,3.73-4.42,6.22-7.66,7.97c-0.29,0.75-0.15,1.64-0.4,2.81
			c1.02-0.2,2.37-1.9,4.28-1.7c1.59-5.84,3.93-8.71,7.86-10.81c0.2-0.71,0.44-1.4,0.7-2.06c1.75-4.24,5.09-7.54,8.36-10.31
			C91.79,104.63,93.04,103.69,94.05,103.13z M99.74,76.45c-0.49-0.76-0.72-1.71-1.83-2.01c-5.89,5.55-12.11,11.81-14.54,21.22
			c1.6-2.27,3.29-4.45,5.46-5.95C91.16,83.55,95.76,80.4,99.74,76.45z M91.77,150.5c-2.05-1.07-4.37-1.75-6.33-2.81
			c-1.7-0.91-3.13-2.06-4.54-3.33c-0.44-0.4-1.17-0.58-1.58-0.99c-2.26-2.29-5.35-7.85-5.31-11.34c0-0.62,0.32-1.49,0-2.7
			c-6.69,1.01-5.74,11.34-9.63,16.34c1.11-4.84,3.7-12.27,4.99-17.57c-7.21,3.19-19.26,3.96-28.1-1.27
			c-2.25,2.56-3.28,8.62-2.68,10.77c-1.3,0.26-0.06,2.35,0.14,3.09c-0.38,0.05-0.34-1.19-0.54-0.26c-0.39,1.04,0.55,0.02,0.67,0.67
			c-0.31,0.44,0.3,0.98-0.13,0.95c-0.71-0.2,0.45-0.85-0.42-1.03c-0.26,0.74,0.16,1.02-0.06,1.73c0.77,0.19-0.09-0.54,0.65-0.49
			c0.22,0.74-0.23,0.83-0.51,0.89c0.81,0.41,0.13,0.4,0.05,0.96c0.33,0.13,0.53-0.2,0.57,0.08c0,0.21-0.86,0.28-0.27,0.54
			c0.27-0.34,0.46,0.61-0.08,0.56c0.96,0.32,0.3,1.63,0.43,2.39c0.24,1.14,1.33,2.43,0.49,3.33c3.29,7.28,2.79,20.1,11.57,24.33
			c1.21-0.33,1.5-1.88,2.8-2.1c0.42,0.91-0.74,1.33-0.89,2.19c5.6,0,10.71-2.92,15.59-5.48C77.81,165.08,86.86,160.36,91.77,150.5z
			 M82.65,94.02c1.7-3.98,2.92-7.7,3.18-13.02c-0.8,0-1-0.47-1.63-0.61C83.32,85.56,81.64,90.16,82.65,94.02z M80.67,102.6
			c-0.94-2.58,1.06-5.29,0.56-9.34c-0.3-0.31-1.11,0.61-1.48,0.94c-0.27,4.81-1.8,10.47-2.48,14.84
			C78.81,106.39,79.28,103.78,80.67,102.6z M74.88,113.5c1.8-5.91,3.08-13.86,4.08-19.23c-0.28-0.41-0.74-0.69-0.8-1.27
			c0.32-0.55,0.62-1.13,0.68-2.02c-0.76-0.17-1.01-0.82-1.87-0.46c-4.01-3.76-6.99-8.32-10.32-12.61c0.1,1.62,0.36,3.1,0.06,5.02
			c3.39,4.58,4.45,11.16,5.57,16.36C72.95,102.39,74.55,110.41,74.88,113.5z M76.54,88.16c-1.05-3.09-2.91-6.86-3.58-9.92
			c-0.76-3.36-1.48-7.61-1.35-10.96c0.13-3.45,1.06-6.81,1.71-9.38c1.9-7.4,5.37-10.72,8.15-15.39c-1.09-1.25-1.44-3.19-2.8-4.62
			c0.14-0.02,0.23-0.14,0.24-0.36c-1.3-1.05-1.72-2.49-1.97-3.73c-2.29-2.36-3.11-5.36-5.5-7.31c-0.15-0.46-0.76-2.01-1.78-2.37
			c-0.04-0.92-0.8-1.28-1.28-1.91c-6.7-9.02-16.45-18.88-30.61-20.1c2.68,1.97,5.62,3.74,6.5,7.07c-3.24-2.84-5.72-6.25-10.63-7.84
			c-1.34,3.63-0.26,5.58-0.17,8.05c-0.55-0.32-0.31-1.24-0.74-1.64c0,2.12,1.84,2.41,0.79,3.95c0.38,0.45,0.21-0.01,0.6-0.1
			c0.46,1.36,0.59,3.1,1.23,3.44c-0.4,2.09,0.94,4.91,2.12,6.84c0.04-0.48-0.28-0.64,0.29-0.73c-0.85,1.5,0.69,2.12,1.22,3.64
			c-0.26-0.04-0.39-0.16-0.54-0.28c0.33,1.18,1.34,2.19,0.66,3.55c1.23,0.03,0.15,1.03,0.56,1.44c1.07,2.98,1.19,10.78,1.6,13.1
			c-0.33,0.04-0.44-0.35-0.56-0.08c0.51,0.51,0.74,1.21,0.16,1.56c1.17,0.65-0.47,2.54,1.05,3.43c-0.97,0.63-0.49,2.97,0.22,3.87
			c-0.12,0.03-0.41-0.04-0.4,0.14c0.08,2.92,2.65,9.4,3.49,10.68c-0.36,1.42,1.09,2.57,1.62,3.5c-0.04-0.05-0.31,0.18-0.24,0.35
			c0.27,0.72,1.11,0.98,1.5,1.56c0.32,0.47,0.22,1.17,0.73,1.65c0.71,0.64,1.66,0.66,2.53,1.12c3.64,1.88,7.73,4.72,10.71,7.27
			c0.95,0,1.82,1.18,2.51,1.32c0.06,0.33,0.47,1.89,1.21,2.29c0.14-1.37-0.71-3.51,0.45-4.55c-2.57-4.12-5.1-12.54-5.06-18.6
			c1.07,1.1,0.81,2.23,1.02,3.61C63.87,72.7,69.73,81.48,76.54,88.16z M62.75,78.32c0.31,0.12,0.73,1.01,1.07,0.54
			C63.49,78.76,63.22,77.75,62.75,78.32z" />
        <path class="st2" fill="#F6BBC0" d="M189.62,85.5c-6.46,8.45-20.26,7.12-26.16,16.31c-2.47,5.52-7.01,8.58-12.12,10.97
			c-1.34,0.62-4.16,2.07-5.63,1.71c-1.3-0.33-2.55-3.03-4.02-4.22c-1.12-0.92-3.93-2.57-4.93-3.2c-1.24-0.77-1.35-0.49-2.17-0.89
			c-0.46-0.21-0.75-0.64-0.87-0.69c-0.78-0.31-1.84-0.16-2.55-0.94c-0.5,0.31-0.2-0.07-0.55-0.26c-0.7-0.04,0.17,0.35-0.8,0.27
			c-3.45-0.3-6.01-1.99-7.57-2.24c-0.56-0.08-0.8,0.16-1.73-0.04c-1.23-0.26-1.95-0.06-3.98-0.36c1.13-1.03,2.37-1.92,3.83-2.54
			c-0.09,0.26-0.37,0.28-0.46,0.52c0.9,0.13,0.54-0.61,0.89-0.84c0.9-0.54,1.53-0.27,2.09-1.25c6.56-3.21,13.76-5.58,21.26-7.57
			c-2.94-0.74-6.14,0.7-9.08,1.6c-3.05,0.96-6.08,2.08-8.67,2.81c0.38-0.9,1.23-0.61,0.96-1.4c-0.83,0.33-2.24,2.61-4.27,3.05
			c3.17-2.22,5.9-6.15,8.82-7.99c-0.4-1,0.67-1.98,1.18-2.9c1.11-1.95,2.08-3.77,3.07-5.34c0.57-0.88,1.03-2.15,1.71-2.64
			c0.32-1.72,1.31-3.76,2.09-6.13l0.37,0.12c-0.04,0.11-0.09,0.24-0.11,0.38c2.65,0.15,1.68-1.01,4.34-0.74
			c0.65,0-0.4-0.81,0.46-0.52c13.23-1.41,38.75-1.05,44.98,10.98C188.65,82.66,189.12,84.09,189.62,85.5z" />
        <path class="st2" fill="#F6BBC0" d="M155.33,144.3c0.2,1.32,1.2,1.99,0.9,3.21c-0.14,0.62-0.84,1.03-1.42,1.9c-1.16,1.74-1.31,3.32-3.22,3.79
			c-4.09-3-7.25-6.7-11.33-9.69c2.58,3.29,6.88,6.73,9.9,10.25c-1.48-0.05-5.18-1.68-6.01,0.3c1.9,0.34,4.3-0.05,5.97,1.41
			c-0.51,1.52-3.2,0.84-5.66,0.55c-2.89-0.34-5.5-1.05-7.28-0.26c-0.18-0.51-1.41-0.36-2.61-0.55c2.12-0.76,5.17-0.31,7.27-1.09
			c-4-1.45-7.15,0.74-12.07-0.37c-1.64-0.36-4.06-1.54-5.42-2.48c-1.45-1-2.25-2.81-4.43-2.75c-2.15,0.05-4.07,2.65-6.42,3.31
			c-2.95,0.86-7.12,0.08-10.9-0.38c-8.59-1.06-16.27-3.88-22.59-8.96c-1.81-3.18-4.21-5.94-4.93-9.93
			c-0.32-5.78,3.05-11.49,7.54-13.94c0.39,0.58,0.42,0.93,1.07,0.54c-0.83,0.69,0.36,0.49,0.49,0.65c0.07,0.08-0.52,0.18-0.43,0.32
			c1.49,2.12,6.05,4.44,10.4,5.32c5.76,1.16,12.64,1.13,18.5,2.43c2.32,0.5,4.12,1.79,6.28,1.84c-5.43-4.58-16.92-4.25-24.39-5.57
			c-5.72-1.01-8.73-3.64-11.3-7.17c3.09-6.58,7.75-11.06,13.53-14.05c1.07,0.31,0.99,0.96,1.97,1.04c0.58,0.05,1.03-0.02,1.39-0.2
			l0.26,0.48c-3.95,2.07-7.27,5.05-10.34,8.11c2.3-0.06,3.68-2.11,5.29-3.49c3.74-3.13,9.76-6.45,16.29-6.35
			c3.93,0.07,8.61,0.74,12.29,1.56c7.44,1.65,14.34,4.56,18.59,8.6c2.76,3.7,5.5,7.41,7.8,11.48c0.34,2.02,1.48,4.67,2.52,6.71
			c0.42,1.61,0.39,3.55,0.77,5.49c0.14,0.73,0.69,1.26,0.86,2.04c0.09,0.45-0.12,1.05-0.03,1.53
			C154.7,141.42,155.07,142.43,155.33,144.3z" />
        <path class="st2" fill="#F6BBC0" d="M143.88,41.72c-0.24,3.13,0.02,5.67-0.5,7.63c-0.22,0.84-0.42,2.31-0.59,4.15c-0.13,1.4-0.66,4.7-1.32,6.53
			c0.29,0.72-1.57,7.99-2.92,12.47c-1.11,3.72-3.26,6.69-5.02,9.68c-1.07,1.84-1.68,3.94-2.89,5.54c-1.61,2.13-3.86,3.87-5.78,5.53
			c-1.99,1.71-3.93,3.51-5.76,5.35c-1.58,0.8-3,1.84-4.28,3.05c-5.73-0.7-10.41,0.47-14.45,2.6l-0.26-0.48
			c2.45-1.24,0.17-7.24-2.64-7.28c-0.89-0.01-2.27,1.31-1.92,2.61c-1.52,0.07-3.27,1.02-4.03,1.35c-0.67-3.06,2.54-5.12,3.62-7.94
			c2.43-0.28,5.05-0.72,7.38-0.51c0.28,0.52-0.04,1.51,0.3,1.98c1.71,1.11,6.68,1.88,7.27-1.09c0.23-1.23-0.51-2.97-2.01-3.55
			c1.34-1.53,1.38-4.44-1.24-4.79c-0.24-1.31-0.97-2.28-2.16-2.42c-1.29-0.14-1.84,1.54-2.61,0.78c0.24,1.03-0.9,1.84-2.52,1.57
			c0.4-3.05,4.24-4.64,4.4-8.03c1.91-2.75,2.92-6.38,4.74-9.13c1.19-1.78,3.35-3.11,2.87-5.36c-1.35,0.11-1.17,1.6-1.68,2.44
			c-0.96,1.59-2.21,2.97-3.17,4.74c-0.96,1.74-1.97,3.39-2.85,5.18c-1.6-0.82-2.55-4.18-4.94-4.55c-2.16-0.32-3.36,1.91-1.69,3.8
			c-3.88,3.8-7.55,7.88-10.97,12.3c0.51-2.64-0.01-3.98,0.34-5.15c0.26-0.79,1.17-1.11,1.27-2.12c0.4-4.31-10-3.06-7.42,0.87
			c1.18,0.4,1.76-0.49,2.67,0.2c0.11,5.16-3.76,5.01-4.23,9.4c-1.23-0.94-1.75-2.69-2.29-4.18c-1.62-4.49-3.79-10.09-3.77-16.87
			c0.02-3.33,0.67-7.01,1.44-10.18c1.81-7.36,7.08-13.31,11.61-18.17c2.43-2.6,4.78-5.18,7.03-7.47c0.98-1,2.78-2.06,4.08-3.07
			c0.45-0.33,0.79-0.97,1.12-1.18c0.06,0.01,1.49-0.57,1.26-0.29c2.09-1.91,4-2.75,5.25-3.61c1.05-0.48,2.15-1.41,3.39-2.2
			c1.06-0.69,2.1-1.14,3.15-1.87c2.25-1.57,6-4.17,9.42-6.74c2.96-2.25,6.35-4.29,9.12-4.68c3.25-0.45,5.57,0.7,6.06,3.36
			c-0.72,2.68-1.39,3.9-1.64,4.77c-2.42,5.33-6.25,11.19-9,17.38c2.44-2.7,4.64-6.65,6.67-10.41c2.06-3.8,4.28-7.76,5.9-11.85
			c1.62-0.54,4.62,1.28,5.15,3.03c0.89,2.95,1.34,7.83,1.52,12.33C144.59,32.17,144.24,37.15,143.88,41.72z" />
        <path class="st0" fill="#F48F90" d="M102.1,86.97c-0.92,0.61-0.98,1.61-0.94,2.55c-5.63,1.04-9.28,2.95-12.29,6.73c-2.45-0.56-4.1,1.85-5.81,3.01
			c3.04-7.74,9.77-12.53,18.13-13.97C101.67,85.72,101.3,86.79,102.1,86.97z" />
        <path class="st0" fill="#F48F90" d="M100.1,78.04c0.87,0.07,0.06,1.41,0.94,1.48c-0.9,1.92-2.07,3.51-3.07,5.32c-1.57-0.25-4.22,2.39-6.42,1.99
			C93.87,83.21,96.57,80.07,100.1,78.04z" />
        <path class="st0" fill="#F48F90" d="M97.91,74.44c1.11,0.3,1.34,1.24,1.83,2.01c-3.98,3.95-8.58,7.1-10.91,13.26c-2.17,1.5-3.86,3.67-5.46,5.95
			C85.79,86.26,92.02,79.99,97.91,74.44z" />
        <path class="st2" fill="#F6BBC0" d="M85.44,147.69c1.96,1.06,4.27,1.74,6.33,2.81c-4.91,9.86-13.96,14.58-23.13,19.43
			c-4.88,2.56-10,5.48-15.59,5.48c0.15-0.86,1.32-1.28,0.89-2.19c-1.3,0.23-1.59,1.78-2.8,2.1c-8.78-4.23-8.28-17.04-11.57-24.33
			c0.84-0.89-0.26-2.18-0.49-3.33c-0.13-0.76,0.53-2.07-0.43-2.39c0.54,0.05,0.35-0.9,0.08-0.56c-0.59-0.26,0.27-0.33,0.27-0.54
			c-0.04-0.28-0.25,0.05-0.57-0.08c0.08-0.56,0.76-0.55-0.05-0.96c0.28-0.06,0.73-0.15,0.51-0.89c-0.75-0.05,0.12,0.68-0.65,0.49
			c0.21-0.71-0.2-0.98,0.06-1.73c0.87,0.18-0.29,0.83,0.42,1.03c0.44,0.03-0.17-0.51,0.13-0.95c-0.12-0.64-1.06,0.37-0.67-0.67
			c0.2-0.92,0.17,0.31,0.54,0.26c-0.21-0.74-1.45-2.83-0.14-3.09c-0.6-2.16,0.42-8.21,2.68-10.77c8.84,5.23,20.88,4.46,28.1,1.27
			c-1.29,5.3-3.87,12.72-4.99,17.57c3.89-5.01,2.94-15.33,9.63-16.34c0.33,1.21,0,2.08,0,2.7c-0.04,3.49,3.05,9.04,5.31,11.34
			c0.41,0.41,1.14,0.59,1.58,0.99C82.31,145.62,83.74,146.78,85.44,147.69z" />
        <path class="st2" fill="#F6BBC0" d="M87.85,100.71c0.72,0.3,0.99,0.95,1.75,1.22c-4.03,3.38-7.69,8.45-8.68,15.12c0.54-0.58,0.93-1.26,1.28-2
			l0.71,0.31c-0.26,0.66-0.5,1.35-0.7,2.06c-3.93,2.1-6.27,4.97-7.86,10.81c-1.91-0.2-3.25,1.5-4.28,1.7
			c0.25-1.17,0.11-2.06,0.4-2.81c3.25-1.74,5.91-4.24,7.66-7.97c-2.21,1.05-3.09,3.46-4.92,4.89c-0.62,0.48-1.54,0.9-2.32,1.4
			c-2.94,1.92-5.81,3.07-10.5,3.52c-1.5,0.14-3.27,0.9-4.73,0.87c-2.37-0.04-5.49-0.86-7.68-1.47c-3.01-0.81-6.35-2.62-9.18-4.38
			c-5.54-3.4-8.46-7.72-12.65-11.21c0.6-1.12-2.22-1.31-1.6-2.34c-2.17-0.33-3.22-2.35-5.12-3.21c-0.98-0.47-2.25-0.45-3.34-0.87
			c-1.27-0.48-2.6-1.65-3.9-2.27c-0.58-0.28-1.18-0.13-1.67-0.44c-1.4-0.88-2.94-2.76-4.4-4.27c-2.23-2.31-4.38-4.47-4.42-8.13
			c2.13-0.21,4.37-0.29,6.75-0.21c-1.4-1.53-4.72-0.47-7.13-1.19c2.18-8.16,7.88-11.89,14.08-15.3c5.89-3.25,12.83-6.54,21.05-6.07
			c3.69,0.21,8.7,0.33,11.88,1.68c1.49,0.64,2.92,1.72,4.44,2.56c4.04,2.19,8.88,5.15,11.49,8.55c0.41,0.54,0.57,1.4,1.04,2.07
			c5.24,7.48,6.24,19.15,8.31,29.63c-4.26-1.47-10.29-1.58-13.71-3.66c3.76-0.29,8.09,0.17,10.3-2.21
			c-4.02,0.99-11.65,2.12-15.62-1.06c0.18,1.06,1.27,1.66,1.99,2.2c0.73,0.57,1.47,1.37,2.25,1.87c4.18,2.66,11.41,2.21,15.88,4.55
			c-0.34,0.98,0.9,0.74,1.03,0.93c0.36,0.96-0.63,2.94,0.27,3.49c1.21-0.83,0.58-5.09,1.48-6.33c0.25-1.07,0.93-2.98,1.67-4.96
			c0.28-0.76,0.79-1.46,1.02-1.77c0.7-1.05,4.76-10.43,6.85-6.34c-0.85,1.16-1.64,2.65-2.56,3.11c-1.98,4.17-5.93,9.79-5.9,15.89
			c1.4-0.44,0.68-3.6,1.99-3.19C80.76,110.3,84.69,104.66,87.85,100.71z" />
        <path class="st0" fill="#F48F90"
            d="M85.82,81c-0.25,5.32-1.48,9.04-3.18,13.02c-1-3.86,0.67-8.46,1.54-13.63C84.82,80.54,85.03,81.01,85.82,81z" />
        <path class="st2" fill="#F6BBC0" d="M78.96,94.27c-1,5.37-2.28,13.31-4.08,19.23c-0.33-3.09-1.92-11.11-2.6-14.21
			c-1.12-5.2-2.18-11.77-5.57-16.36c0.3-1.92,0.04-3.4-0.06-5.02c3.33,4.29,6.31,8.85,10.32,12.61c0.86-0.36,1.11,0.3,1.87,0.46
			c-0.07,0.88-0.36,1.47-0.68,2.02C78.22,93.58,78.68,93.86,78.96,94.27z" />
        <path class="st2" fill="#F6BBC0" d="M72.96,78.23c0.68,3.06,2.53,6.84,3.58,9.92c-6.81-6.67-12.68-15.46-14.33-26.45
			c-0.22-1.38,0.04-2.51-1.02-3.61c-0.04,6.06,2.49,14.49,5.06,18.6c-1.16,1.04-0.31,3.18-0.45,4.55c-0.74-0.4-1.15-1.95-1.21-2.29
			c-0.69-0.14-1.56-1.32-2.51-1.32c-2.98-2.55-7.07-5.39-10.71-7.27c-0.87-0.46-1.82-0.48-2.53-1.12c-0.51-0.48-0.41-1.18-0.73-1.65
			c-0.39-0.58-1.23-0.84-1.5-1.56c-0.08-0.17,0.2-0.4,0.24-0.35c-0.54-0.93-1.98-2.07-1.62-3.5c-0.84-1.28-3.41-7.76-3.49-10.68
			c0-0.19,0.29-0.12,0.4-0.14c-0.71-0.9-1.19-3.24-0.22-3.87c-1.52-0.9,0.12-2.78-1.05-3.43c0.58-0.34,0.35-1.04-0.16-1.56
			c0.12-0.27,0.23,0.12,0.56,0.08c-0.41-2.32-0.53-10.12-1.6-13.1c-0.41-0.41,0.67-1.41-0.56-1.44c0.67-1.35-0.33-2.36-0.66-3.55
			c0.15,0.12,0.28,0.24,0.54,0.28c-0.52-1.52-2.07-2.14-1.22-3.64c-0.57,0.09-0.25,0.25-0.29,0.73c-1.18-1.93-2.51-4.75-2.12-6.84
			c-0.65-0.35-0.77-2.08-1.23-3.44c-0.38,0.09-0.22,0.55-0.6,0.1c1.04-1.54-0.79-1.83-0.79-3.95c0.43,0.4,0.18,1.32,0.74,1.64
			c-0.09-2.47-1.17-4.41,0.17-8.05c4.9,1.59,7.39,5,10.63,7.84c-0.88-3.33-3.82-5.1-6.5-7.07c14.15,1.22,23.91,11.08,30.61,20.1
			c0.48,0.64,1.24,1,1.28,1.91c1.02,0.36,1.64,1.91,1.78,2.37c2.4,1.96,3.21,4.96,5.5,7.31c0.25,1.24,0.67,2.68,1.97,3.73
			c0,0.23-0.09,0.34-0.24,0.36c1.36,1.43,1.71,3.37,2.8,4.62c-2.78,4.67-6.25,7.98-8.15,15.39c-0.65,2.57-1.58,5.93-1.71,9.38
			C71.48,70.62,72.2,74.87,72.96,78.23z" />
	</g>
</g>
</svg>
